<?xml version="1.0" encoding="utf-8"?>
<!-- Generator: Adobe Illustrator 18.1.1, SVG Export Plug-In . SVG Version: 6.00 Build 0)  -->
<svg version="1.1" id="Laag_1" xmlns="http://www.w3.org/2000/svg" xmlns:xlink="http://www.w3.org/1999/xlink" x="0px" y="0px"
	 viewBox="0 0 24.2 24.2" enable-background="new 0 0 24.2 24.2" xml:space="preserve">
<path fill="#7F7F7F" d="M12.1,0C5.4,0,0,5.4,0,12.1c0,6.7,5.4,12.1,12.1,12.1c6.7,0,12.1-5.4,12.1-12.1C24.3,5.4,18.8,0,12.1,0z
	 M9.2,17.1H6.7V9.2h2.5V17.1z M7.9,8.3C7.1,8.3,6.6,7.7,6.6,7c0-0.7,0.5-1.2,1.3-1.2c0.8,0,1.3,0.5,1.3,1.2C9.2,7.7,8.7,8.3,7.9,8.3
	z M18.1,17.1h-2.5v-4.4c0-1-0.4-1.7-1.2-1.7c-0.7,0-1.1,0.5-1.3,0.9c-0.1,0.2-0.1,0.4-0.1,0.6v4.6h-2.5v-5.4c0-1,0-1.8-0.1-2.5h2.1
	l0.1,1.1h0c0.3-0.5,1.1-1.3,2.4-1.3c1.6,0,2.8,1.1,2.8,3.4V17.1z"/>
</svg>
