<?xml version="1.0" encoding="utf-8"?>
<!-- Generator: Adobe Illustrator 18.1.1, SVG Export Plug-In . SVG Version: 6.00 Build 0)  -->
<svg version="1.1" id="Laag_1" xmlns="http://www.w3.org/2000/svg" xmlns:xlink="http://www.w3.org/1999/xlink" x="0px" y="0px"
	 viewBox="0 0 24.2 24.2" enable-background="new 0 0 24.2 24.2" xml:space="preserve">
<path fill="#7F7F7F" d="M12.1,0.1c-6.6,0-12,5.4-12,12c0,6.6,5.4,12,12,12c6.6,0,12-5.4,12-12C24.1,5.5,18.8,0.1,12.1,0.1z M17,10
	c0,0.1,0,0.2,0,0.3c0,3.1-2.4,6.7-6.7,6.7c-1.3,0-2.6-0.4-3.6-1.1c0.2,0,0.4,0,0.6,0c1.1,0,2.1-0.4,2.9-1c-1,0-1.9-0.7-2.2-1.6
	c0.1,0,0.3,0,0.4,0c0.2,0,0.4,0,0.6-0.1c-1.1-0.2-1.9-1.2-1.9-2.3c0,0,0,0,0,0c0.3,0.2,0.7,0.3,1.1,0.3c-0.6-0.4-1.1-1.1-1.1-2
	c0-0.4,0.1-0.8,0.3-1.2c1.2,1.4,2.9,2.4,4.9,2.5c0-0.2-0.1-0.4-0.1-0.5c0-1.3,1.1-2.4,2.4-2.4c0.7,0,1.3,0.3,1.7,0.7
	c0.5-0.1,1-0.3,1.5-0.6c-0.2,0.6-0.6,1-1,1.3c0.5-0.1,0.9-0.2,1.4-0.4C17.9,9.2,17.5,9.6,17,10z"/>
</svg>
