<?xml version="1.0" encoding="utf-8"?>
<!-- Generator: Adobe Illustrator 18.1.1, SVG Export Plug-In . SVG Version: 6.00 Build 0)  -->
<svg version="1.1" id="Laag_1" xmlns="http://www.w3.org/2000/svg" xmlns:xlink="http://www.w3.org/1999/xlink" x="0px" y="0px"
	 viewBox="0 0 24.2 24.2" enable-background="new 0 0 24.2 24.2" xml:space="preserve">
<path fill="#7F7F7F" d="M11,8.7c-0.3-1.1-0.8-1.4-1.6-1.4c-0.1,0-0.2,0-0.2,0C8.8,7.5,8.6,7.8,8.4,8.2C8.3,8.6,8.2,9,8.4,9.5
	C8.6,10.4,9.2,11,9.9,11c0.1,0,0.2,0,0.2,0C10.8,10.8,11.2,9.7,11,8.7z M12.1,0.1C5.4,0.1,0,5.5,0,12.2c0,6.7,5.4,12.1,12.1,12.1
	c6.7,0,12.1-5.4,12.1-12.1C24.2,5.5,18.8,0.1,12.1,0.1z M11.4,17.3c-0.8,0.4-1.6,0.4-1.9,0.4c-0.1,0-0.1,0-0.1,0c0,0,0,0-0.1,0
	c-0.5,0-3-0.1-3-2.4c0-2.2,2.7-2.4,3.5-2.4l0,0c-0.5-0.6-0.4-1.3-0.4-1.3c0,0-0.1,0-0.2,0c-0.3,0-0.9,0-1.4-0.4C7.3,11,7,10.3,7,9.3
	c0-2.7,2.9-2.8,3-2.8h2.9v0.1c0,0.3-0.6,0.4-1,0.4c-0.1,0-0.4,0-0.5,0.1c0.7,0.4,0.9,1,0.9,1.9c0,1.1-0.4,1.6-0.9,2
	c-0.3,0.2-0.5,0.4-0.5,0.7c0,0.2,0.3,0.5,0.6,0.8c0.6,0.5,1.3,1.2,1.3,2.3C12.9,16,12.4,16.9,11.4,17.3z M17.8,12.1h-1.9v1.9h-1.2
	v-1.9h-1.9v-1.2h1.9V9h1.2v1.9h1.9V12.1z M9.9,13.6c-0.1,0-0.1,0-0.2,0c-0.6,0-1.1,0.3-1.4,0.6c-0.4,0.3-0.6,0.8-0.5,1.2
	c0.1,0.9,1,1.4,2.2,1.3c1.1-0.1,1.9-0.7,1.9-1.6C11.7,14.2,10.9,13.6,9.9,13.6z"/>
</svg>
