<?xml version="1.0" encoding="utf-8"?>
<!-- Generator: Adobe Illustrator 18.1.1, SVG Export Plug-In . SVG Version: 6.00 Build 0)  -->
<svg version="1.1" id="Laag_1" xmlns="http://www.w3.org/2000/svg" xmlns:xlink="http://www.w3.org/1999/xlink" x="0px" y="0px"
	 viewBox="0 0 960 560" enable-background="new 0 0 960 560" xml:space="preserve">
<path fill="#7D7E7E" d="M323.2,537.7c-20-2.5-39.8-2.8-59.5-2.9c-30-0.2-60.1-0.2-90.1,0.1c-12.8,0.1-25.8,1.1-38.6,1.7
	c-2.1,0.1-4.4,0.5-6.5,0.9c-4.6,0.8-7.9-2.9-6.4-7.4c0.4-1.2,1.3-2.3,2.1-3.4c26.5-35.1,53-70.1,79.6-105.2
	c26.1-34.5,52.2-69,78.3-103.5c0.7-0.9,1.3-1.8,2.2-3c-1.2-0.1-2-0.3-2.8-0.3c-24.1,0-48.3-0.1-72.3,0c-11.7,0-23.2,1.6-34.1,6.3
	c-12.7,5.5-22.7,14.3-30,25.8c-2.7,4.4-5.1,9.1-7.4,13.7c-1.8,3.5-3.3,3.7-6.5,3.2c-2.9-0.5-3.8-2.4-2.7-5.4
	c2.1-6,4.4-11.9,6.6-17.8c4.6-12.5,8.8-25.3,11.8-38.3c0.1-0.4,0.3-0.8,0.4-1.3c0.5,0,1-0.1,1.5,0c8.7,1.7,17.5,2,26.4,2.3
	c37,1.1,74.1,0.8,111,0.4c11.5-0.1,23.1-1,34.6-1.6c2-0.1,4.1-0.4,6.2-0.9c2.2-0.6,3.8-0.2,5.2,1.7c1.3,2,1.6,4.9,0.2,6.7
	c-4.1,5.3-8.2,10.7-12.2,16.2c-49.1,65-98,130-147.1,195c-0.6,0.8-1.1,1.6-2,2.8c1.1,0.1,1.9,0.2,2.7,0.2c29.2,0,58.5,0,87.6,0
	c11.5,0,22.6-2.3,32.8-7.7c15-7.7,24.8-19.8,30.5-35.6c0.2-0.6,0.4-1.2,0.6-1.8c0.9-3.3,2.7-4.2,6.5-3.6c2.9,0.5,3.8,2.2,3.1,5.2
	c-2.4,10.6-5.1,21.2-7.3,31.9c-1.5,7.6-2.4,15.4-3.6,23.1C323.6,535.9,323.4,536.7,323.2,537.7z"/>
<path fill="#7D7E7E" d="M833.4,526.7c-3.9-0.6-7.8-1.2-11.6-2c-13.6-3-24.8-9.5-31.7-22.1c-0.1-0.3-0.3-0.5-0.5-0.8
	c-17-25.9-34.1-51.7-51.1-77.6c-0.7-1.1-1.4-2.2-2.1-3.3c0.3-0.3,0.5-0.5,0.6-0.6c0.8-0.4,1.7-0.7,2.6-1c12.5-5,24-11.5,33.5-21.1
	C784,387,790,373.9,788.9,358c-1.4-20.2-10.6-35.5-28.5-45.3c-10.6-5.9-22.3-8.6-34.2-9.9c-14.5-1.5-28.8-0.8-43.3,0.2
	c-16.6,1.2-33.2,1.2-49.9,0c-8.6-0.6-17.2-0.7-25.9-1c-2.5-0.1-3.4,0.7-3.7,3.1c-0.2,1.1-0.1,2.3,0,3.4c0.3,1.9,1,2.6,3,2.9
	c2.6,0.4,5.4,0.7,8,1.2c5.8,1,11.4,2.2,16.7,5c4.7,2.4,7.8,6.1,8.5,11.2c0.6,3.6,0.9,7.5,0.9,11.1c0.1,52.9,0,105.8,0,158.7
	c0,2.9-0.2,5.9-0.5,8.7c-0.6,6.4-3.7,11.2-9.7,13.9c-3.3,1.4-6.8,2.6-10.3,3.4c-4.1,1-8.4,1.4-12.5,2.1c-3.3,0.5-4.2,1.6-4.4,5
	c0,0.4,0,0.8,0.1,1.2c0.3,2.7,1.2,3.6,4,3.5c7.5-0.2,15-0.3,22.5-0.8c18.8-1.4,37.5-1.4,56.4,0c7.5,0.6,15,0.6,22.5,0.8
	c1.3,0,2.4,0,3.3-1.2c2.3-3.4,0.5-7.9-3.5-8.5c-3.1-0.5-6.4-0.8-9.5-1.4c-5.1-0.9-9.9-2.1-14.5-4.6c-4.9-2.6-7.7-6.6-8.5-11.9
	c-0.4-2.7-0.6-5.6-0.6-8.4c0-23.6,0-47.2,0-70.8c0-1,0.1-2,0.2-3.1c0.7-0.1,1.2-0.2,1.7-0.2c4.1,0.2,8.3,0.3,12.4,0.7
	c7.9,0.7,14.3,4.4,19,10.6c2.2,2.9,4.6,6,6.5,9.1c7.6,12,15.1,24.2,22.6,36.3c10.5,17,20.9,34,31.4,51c1.2,1.9,2.4,2.7,4.8,2.5
	c3.3-0.4,6.7-0.3,9.9-0.8c11.7-1.6,23.4-1.3,35.1-0.1c5.1,0.5,10.1,0.6,15.3,0.9c1.1,0.1,2.2,0,3-1.1
	C839.4,532.1,837.4,527.3,833.4,526.7z M692.7,416.3c-4.9-0.2-9.9-0.5-14.8-0.8c-0.9-0.1-1.2-0.3-3.2-0.5c0-1.4,0-2.4,0-3.4
	c0-24.7,0.2-49.3,0.2-74c0-3.1,0.3-6.3,0.7-9.3c0.8-5.8,4-9.8,9.5-11.7c3-1.1,6.2-1.8,9.4-2.2c9.5-1.2,19.1-1.5,28.5,0.8
	c11.8,2.9,20,10.1,24.6,21.4c2.4,6.1,3.5,12.3,3.9,18.8c0.7,9.7,0.2,19.3-2,28.8c-4.1,17.3-15.3,27.3-32.6,30.8
	C708.9,416.5,700.8,416.6,692.7,416.3z"/>
<path fill="#7D7E7E" d="M321.1,178.4c-1.1-13.1-7.6-23.6-17.2-32.3c-10.1-9.2-22.2-14.9-35.2-18.8c-3.5-1.1-7.2-1.9-10.7-2.9
	c0-0.2,0-0.4,0-0.6c1-0.3,1.9-0.6,2.9-0.9c14-4.4,25.8-11.8,34.9-23.4c15.4-19.3,11.3-42.9,0-57.5c-6.3-8.1-14.4-13.7-23.8-17.6
	c-10.9-4.6-22.4-6.7-34-6.7c-12.3,0-24.7,0.7-37,1.3c-14.3,0.7-28.4,0.8-42.7,0c-10.2-0.6-20.5-1-30.9-1.4c-2.7-0.1-4.1,1.4-4.4,4.5
	c-0.2,2.9,1.1,4.9,3.6,5.3c1.8,0.3,3.7,0.5,5.6,0.8c6.2,1,12.2,2.2,18,4.9c6.1,2.8,9.5,7.6,10.1,14.3c0.3,3.6,0.5,7.3,0.5,10.9
	c0,51.4,0,102.7,0,154.1c0,3.5-0.2,7.1-0.5,10.6c-0.5,7.1-4.2,12-10.7,14.8c-1.6,0.7-3.2,1.4-5,1.8c-5.8,1.2-11.6,2.3-17.4,3.3
	c-2.9,0.5-4.5,2.2-4.2,5.4c0.2,3.2,1.5,4.5,4.8,4.2c11.2-0.4,22.5-0.8,33.6-1.4c20.1-1.2,40.3-0.1,60.4,0.8
	c12.2,0.6,24.5,1.3,36.7-0.3c10.6-1.3,20.7-4.4,30-9.6C314.1,227.6,323.1,202.2,321.1,178.4z M195.2,49.3c0-2.5,0.2-5,0.7-7.4
	c1-5.2,4-8.9,9-10.6c2.2-0.8,4.7-1.5,7-1.6c8.8-0.4,17.7-0.7,26.4,1.1c2.4,0.5,4.9,1.1,7.2,2c11.9,4.2,18.8,13,21.4,25.1
	c2.4,11.5,2.1,23.2-0.8,34.6c-3.7,15.1-13.9,23.8-28.8,26.7c-5.3,1-10.7,1.5-16.1,1.7c-7.9,0.3-15.9,0.1-23.8,0.1
	c-0.6,0-1.3-0.1-2.3-0.2c0-1.5,0-2.6,0-3.7C195.1,94.4,195.2,71.8,195.2,49.3z M278.7,211.8c-8.4,19-23.4,28.9-44.2,29.4
	c-7.3,0.2-14.6-0.2-21.7-2.1c-1.8-0.5-3.5-1.1-5.3-1.8c-6.8-2.8-10.5-7.9-11.5-15.1c-0.4-2.5-0.6-5.2-0.6-7.8c0-26.6,0-53.2,0-79.8
	c0-0.8,0.1-1.6,0.1-2.8c1.2-0.1,2.1-0.1,3-0.1c11.2,0,22.5,0,33.7,0c6.4,0,12.6,0.7,18.7,2.6c15.9,4.9,26.4,15.2,30.8,31.1
	C286,181.1,285.2,196.8,278.7,211.8z"/>
<path fill="#7D7E7E" d="M586.9,87.2c-10.4-26.9-28.6-47.2-54.3-60.6c-19-9.8-39.5-13.9-61.3-14c-10.5,0.1-21.6,1-32.3,3.7
	c-37.6,9.2-65.2,31.2-80.6,66.9c-14,32.1-14.8,65.1-3.3,97.9c10,28.9,29.1,50.2,56.7,63.7c14.6,7.2,29.9,10.9,46.1,12.3
	c17.9,1.5,35.5,0.5,52.8-4.5c39.6-11.3,66.5-36.3,79.1-75.7C599.5,146.9,598.4,116.7,586.9,87.2z M547.7,194.8
	c-6,13.7-14.3,25.6-25.9,35c-12.5,10.1-26.9,15.6-42.9,16.8c-14.4,1.1-28.2-0.8-41.4-6.9c-15.5-7.1-26.9-18.5-35.6-33
	c-7.2-12-11.8-25.2-14.4-39c-4.8-26.1-3.9-51.9,3.5-77.4c4.1-14.1,10.5-27.1,19.9-38.4c12.3-14.9,28-24.6,47.2-27.3
	c31.9-4.6,58,5.8,77.4,31.8c10,13.4,15.9,28.6,19.5,44.8c2.5,11.6,3.6,23.4,3.7,35.5C558.8,156.5,555.8,176.1,547.7,194.8z"/>
<path fill="#7D7E7E" d="M585.7,526.9c-1.9-0.4-3.9-0.6-5.9-0.9c-10.1-2-19.2-6.1-26.1-14.2c-4.6-5.3-7.5-11.4-9.8-17.9
	c-19.8-54.7-39.6-109.4-59.4-164.1c-3.5-9.7-7-19.3-10.5-29c-1-2.9-2.2-3.7-5-3.8c-2.8-0.1-4.1,0.8-5.4,3.3
	c-0.3,0.8-0.6,1.5-0.9,2.3c-25.6,62.9-51.2,125.9-76.8,188.8c-2.7,6.8-5.8,13.4-9.8,19.4c-5.5,8.4-13.2,13.4-23,15.2
	c-2.1,0.4-4.4,0.6-6.5,1c-2.6,0.5-4,2.1-4.4,4.6c-0.4,3.6,0.7,5.1,4.4,5c5.1-0.2,10.2-0.3,15.3-0.8c14.6-1.5,29-1.3,43.6,0
	c6.3,0.6,12.6,0.6,19,0.8c2.2,0.1,3-0.8,3.6-3c0.6-2.3,0-5.5-1.2-6.1c-0.4-0.2-1-0.3-1.5-0.3c-1.5-0.2-3.1-0.3-4.7-0.4
	c-5.1-0.6-10.1-1.4-14.7-3.8c-4.7-2.4-7.1-6.4-7-11.6c0-1.5,0-3.1,0.4-4.7c1.1-4.2,2.1-8.5,3.5-12.5c5.9-16.3,11.9-32.6,17.9-48.9
	c0.3-0.8,0.7-1.5,1.1-2.5c23.1,0,46,0,69,0c0.2,0,0.5,0.8,0.6,1.2c6.7,19.3,13.5,38.6,20,58.1c1.2,3.5,1.7,7.3,2.1,10.9
	c0.4,4.5-1.7,7.9-5.8,9.8c-2.5,1.2-5.2,2.2-7.9,2.7c-4.4,0.8-8.9,1.1-13.3,1.7c-0.9,0.1-2.1,0.4-2.4,1c-1.2,2.2-1.2,4.6-0.1,6.9
	c0.9,1.9,2.6,1.7,4.2,1.6c10.5-0.4,20.9-0.8,31.5-1.4c14.7-0.9,29.2-0.6,43.9,0.5c7.3,0.6,14.6,0.6,21.9,0.9
	c1.3,0.1,2.4-0.2,3.2-1.4C591.3,531.8,589.6,527.7,585.7,526.9z M426.4,431.2c10.5-28.3,20.9-56.6,31.5-84.8c0.2,0,0.4,0,0.6,0
	c9.7,28.2,19.4,56.5,29.1,84.6C485.1,431.8,430.3,432,426.4,431.2z"/>
</svg>
