<?xml version="1.0" encoding="utf-8"?>
<!-- Generator: Adobe Illustrator 18.1.1, SVG Export Plug-In . SVG Version: 6.00 Build 0)  -->
<svg version="1.1" id="Laag_1" xmlns="http://www.w3.org/2000/svg" xmlns:xlink="http://www.w3.org/1999/xlink" x="0px" y="0px"
	 viewBox="0 0 756 553.5" enable-background="new 0 0 756 553.5" xml:space="preserve">
<path fill="#FFFFFF" d="M223,531.5c-19.8-2.5-39.3-2.8-58.8-2.9c-29.7-0.2-59.4-0.2-89.1,0.1c-12.7,0.1-25.5,1.1-38.2,1.7
	c-2.1,0.1-4.3,0.5-6.4,0.9c-4.5,0.8-7.8-2.9-6.3-7.3c0.4-1.2,1.3-2.3,2.1-3.4c26.2-34.7,52.4-69.3,78.7-104
	c25.8-34.1,51.6-68.2,77.4-102.3c0.7-0.9,1.3-1.8,2.2-3c-1.2-0.1-2-0.3-2.8-0.3c-23.8,0-47.7-0.1-71.5,0c-11.6,0-22.9,1.6-33.7,6.2
	c-12.6,5.4-22.4,14.1-29.7,25.5c-2.7,4.3-5,9-7.3,13.5c-1.8,3.5-3.3,3.7-6.4,3.2c-2.9-0.5-3.8-2.4-2.7-5.3
	c2.1-5.9,4.3-11.8,6.5-17.6c4.5-12.4,8.7-25,11.7-37.9c0.1-0.4,0.3-0.8,0.4-1.3c0.5,0,1-0.1,1.5,0c8.6,1.7,17.3,2,26.1,2.3
	c36.6,1.1,73.2,0.8,109.7,0.4c11.4-0.1,22.8-1,34.2-1.6c2-0.1,4.1-0.4,6.1-0.9c2.2-0.6,3.8-0.2,5.1,1.7c1.3,2,1.6,4.8,0.2,6.6
	c-4.1,5.2-8.1,10.6-12.1,16c-48.5,64.2-96.9,128.5-145.4,192.7c-0.6,0.8-1.1,1.6-2,2.8c1.1,0.1,1.9,0.2,2.7,0.2
	c28.9,0,57.8,0,86.6,0c11.4,0,22.3-2.3,32.4-7.6c14.8-7.6,24.5-19.6,30.1-35.2c0.2-0.6,0.4-1.2,0.6-1.8c0.9-3.3,2.7-4.2,6.4-3.6
	c2.9,0.5,3.8,2.2,3.1,5.1c-2.4,10.5-5,21-7.2,31.5c-1.5,7.5-2.4,15.2-3.6,22.8C223.4,529.7,223.2,530.5,223,531.5z"/>
<path fill="#FFFFFF" d="M727.3,520.6c-3.9-0.6-7.7-1.2-11.5-2c-13.4-3-24.5-9.4-31.3-21.8c-0.1-0.3-0.3-0.5-0.5-0.8
	c-16.8-25.6-33.7-51.1-50.5-76.7c-0.7-1.1-1.4-2.2-2.1-3.3c0.3-0.3,0.5-0.5,0.6-0.6c0.8-0.4,1.7-0.7,2.6-1
	c12.4-4.9,23.7-11.4,33.1-20.9c10.8-11,16.7-23.9,15.6-39.7c-1.4-20-10.5-35.1-28.2-44.8c-10.5-5.8-22-8.5-33.8-9.8
	c-14.3-1.5-28.5-0.8-42.8,0.2c-16.4,1.2-32.8,1.2-49.3,0c-8.5-0.6-17-0.7-25.6-1c-2.5-0.1-3.4,0.7-3.7,3.1c-0.2,1.1-0.1,2.3,0,3.4
	c0.3,1.9,1,2.6,3,2.9c2.6,0.4,5.3,0.7,7.9,1.2c5.7,1,11.3,2.2,16.5,4.9c4.6,2.4,7.7,6,8.4,11.1c0.6,3.6,0.9,7.4,0.9,11
	c0.1,52.3,0,104.6,0,156.9c0,2.9-0.2,5.8-0.5,8.6c-0.6,6.3-3.7,11.1-9.6,13.7c-3.3,1.4-6.7,2.6-10.2,3.4c-4.1,1-8.3,1.4-12.4,2.1
	c-3.3,0.5-4.2,1.6-4.3,4.9c0,0.4,0,0.8,0.1,1.2c0.3,2.7,1.2,3.6,4,3.5c7.4-0.2,14.8-0.3,22.2-0.8c18.6-1.4,37.1-1.4,55.7,0
	c7.4,0.6,14.8,0.6,22.2,0.8c1.3,0,2.4,0,3.3-1.2c2.3-3.4,0.5-7.8-3.5-8.4c-3.1-0.5-6.3-0.8-9.4-1.4c-5-0.9-9.8-2.1-14.3-4.5
	c-4.8-2.6-7.6-6.5-8.4-11.8c-0.4-2.7-0.6-5.5-0.6-8.3c0-23.3,0-46.7,0-70c0-1,0.1-2,0.2-3.1c0.7-0.1,1.2-0.2,1.7-0.2
	c4.1,0.2,8.2,0.3,12.3,0.7c7.8,0.7,14.1,4.3,18.8,10.5c2.2,2.9,4.5,5.9,6.4,9c7.5,11.9,14.9,23.9,22.3,35.9
	c10.4,16.8,20.7,33.6,31,50.4c1.2,1.9,2.4,2.7,4.7,2.5c3.3-0.4,6.6-0.3,9.8-0.8c11.6-1.6,23.1-1.3,34.7-0.1c5,0.5,10,0.6,15.1,0.9
	c1.1,0.1,2.2,0,3-1.1C733.2,525.9,731.3,521.2,727.3,520.6z M588.2,411.5c-4.8-0.2-9.8-0.5-14.6-0.8c-0.9-0.1-1.2-0.3-3.2-0.5
	c0-1.4,0-2.4,0-3.4c0-24.4,0.2-48.7,0.2-73.1c0-3.1,0.3-6.2,0.7-9.2c0.8-5.7,4-9.7,9.4-11.6c3-1.1,6.1-1.8,9.3-2.2
	c9.4-1.2,18.9-1.5,28.2,0.8c11.7,2.9,19.8,10,24.3,21.2c2.4,6,3.5,12.2,3.9,18.6c0.7,9.6,0.2,19.1-2,28.5
	c-4.1,17.1-15.1,27-32.2,30.4C604.2,411.7,596.2,411.8,588.2,411.5z"/>
<path fill="#FFFFFF" d="M220.9,176.3c-1.1-12.9-7.5-23.3-17-31.9c-10-9.1-21.9-14.7-34.8-18.6c-3.5-1.1-7.1-1.9-10.6-2.9
	c0-0.2,0-0.4,0-0.6c1-0.3,1.9-0.6,2.9-0.9c13.8-4.3,25.5-11.7,34.5-23.1c15.2-19.1,11.2-42.4,0-56.8c-6.2-8-14.2-13.5-23.5-17.4
	c-10.8-4.5-22.1-6.6-33.6-6.6c-12.2,0-24.4,0.7-36.6,1.3c-14.1,0.7-28.1,0.8-42.2,0c-10.1-0.6-20.3-1-30.5-1.4
	c-2.7-0.1-4.1,1.4-4.3,4.4c-0.2,2.9,1.1,4.8,3.6,5.2c1.8,0.3,3.7,0.5,5.5,0.8c6.1,1,12.1,2.2,17.8,4.8c6,2.8,9.4,7.5,10,14.1
	c0.3,3.6,0.5,7.2,0.5,10.8c0,50.8,0,101.5,0,152.3c0,3.5-0.2,7-0.5,10.5c-0.5,7-4.2,11.9-10.6,14.6c-1.6,0.7-3.2,1.4-4.9,1.8
	c-5.7,1.2-11.5,2.3-17.2,3.3c-2.9,0.5-4.4,2.2-4.2,5.3c0.2,3.2,1.5,4.4,4.7,4.2c11.1-0.4,22.2-0.8,33.2-1.4
	c19.9-1.2,39.8-0.1,59.7,0.8c12.1,0.6,24.2,1.3,36.3-0.3c10.5-1.3,20.5-4.3,29.7-9.5C214,225,222.9,199.9,220.9,176.3z M96.5,48.7
	c0-2.5,0.2-4.9,0.7-7.3c1-5.1,4-8.8,8.9-10.5c2.2-0.8,4.6-1.5,6.9-1.6c8.7-0.4,17.5-0.7,26.1,1.1c2.4,0.5,4.8,1.1,7.1,2
	c11.8,4.2,18.6,12.8,21.2,24.8c2.4,11.4,2.1,22.9-0.8,34.2c-3.7,14.9-13.7,23.5-28.5,26.4c-5.2,1-10.6,1.5-15.9,1.7
	c-7.8,0.3-15.7,0.1-23.5,0.1c-0.6,0-1.3-0.1-2.3-0.2c0-1.5,0-2.6,0-3.7C96.4,93.3,96.5,71,96.5,48.7z M179,209.3
	c-8.3,18.8-23.1,28.6-43.7,29.1c-7.2,0.2-14.4-0.2-21.4-2.1c-1.8-0.5-3.5-1.1-5.2-1.8c-6.7-2.8-10.4-7.8-11.4-14.9
	c-0.4-2.5-0.6-5.1-0.6-7.7c0-26.3,0-52.6,0-78.9c0-0.8,0.1-1.6,0.1-2.8c1.2-0.1,2.1-0.1,3-0.1c11.1,0,22.2,0,33.3,0
	c6.3,0,12.5,0.7,18.5,2.6c15.7,4.8,26.1,15,30.4,30.7C186.3,179,185.5,194.5,179,209.3z"/>
<path fill="#FFFFFF" d="M483.7,86.2c-10.3-26.6-28.3-46.7-53.7-59.9c-18.8-9.7-39-13.7-60.6-13.8c-10.4,0.1-21.3,1-31.9,3.7
	c-37.2,9.1-64.4,30.8-79.7,66.1c-13.8,31.7-14.6,64.3-3.3,96.8c9.9,28.6,28.8,49.6,56,63c14.4,7.1,29.6,10.8,45.6,12.2
	c17.7,1.5,35.1,0.5,52.2-4.4c39.1-11.2,65.7-35.9,78.2-74.8C496.1,145.2,495,115.3,483.7,86.2z M444.9,192.5
	c-5.9,13.5-14.1,25.3-25.6,34.6c-12.4,10-26.6,15.4-42.4,16.6c-14.2,1.1-27.9-0.8-40.9-6.8c-15.3-7-26.6-18.3-35.2-32.6
	c-7.1-11.9-11.7-24.9-14.2-38.5c-4.7-25.8-3.9-51.3,3.5-76.5c4.1-13.9,10.4-26.8,19.7-38c12.2-14.7,27.7-24.3,46.7-27
	c31.5-4.5,57.3,5.7,76.5,31.4c9.9,13.2,15.7,28.3,19.3,44.3c2.5,11.5,3.6,23.1,3.7,35.1C455.9,154.7,452.9,174.1,444.9,192.5z"/>
<path fill="#FFFFFF" d="M482.5,520.8c-1.9-0.4-3.9-0.6-5.8-0.9c-10-2-19-6-25.8-14c-4.5-5.2-7.4-11.3-9.7-17.7
	c-19.6-54.1-39.1-108.1-58.7-162.2c-3.5-9.6-6.9-19.1-10.4-28.7c-1-2.9-2.2-3.7-4.9-3.8c-2.8-0.1-4.1,0.8-5.3,3.3
	c-0.3,0.8-0.6,1.5-0.9,2.3c-25.3,62.2-50.6,124.4-75.9,186.6c-2.7,6.7-5.7,13.2-9.7,19.2c-5.4,8.3-13,13.2-22.7,15
	c-2.1,0.4-4.3,0.6-6.4,1c-2.6,0.5-4,2.1-4.3,4.5c-0.4,3.6,0.7,5,4.3,4.9c5-0.2,10.1-0.3,15.1-0.8c14.4-1.5,28.7-1.3,43.1,0
	c6.2,0.6,12.5,0.6,18.8,0.8c2.2,0.1,3-0.8,3.6-3c0.6-2.3,0-5.4-1.2-6c-0.4-0.2-1-0.3-1.5-0.3c-1.5-0.2-3.1-0.3-4.6-0.4
	c-5-0.6-10-1.4-14.5-3.8c-4.6-2.4-7-6.3-6.9-11.5c0-1.5,0-3.1,0.4-4.6c1.1-4.2,2.1-8.4,3.5-12.4c5.8-16.1,11.8-32.2,17.7-48.3
	c0.3-0.8,0.7-1.5,1.1-2.5c22.8,0,45.5,0,68.2,0c0.2,0,0.5,0.8,0.6,1.2c6.6,19.1,13.3,38.2,19.8,57.4c1.2,3.5,1.7,7.2,2.1,10.8
	c0.4,4.4-1.7,7.8-5.7,9.7c-2.5,1.2-5.1,2.2-7.8,2.7c-4.3,0.8-8.8,1.1-13.1,1.7c-0.9,0.1-2.1,0.4-2.4,1c-1.2,2.2-1.2,4.5-0.1,6.8
	c0.9,1.9,2.6,1.7,4.2,1.6c10.4-0.4,20.7-0.8,31.1-1.4c14.5-0.9,28.9-0.6,43.4,0.5c7.2,0.6,14.4,0.6,21.6,0.9
	c1.3,0.1,2.4-0.2,3.2-1.4C488,525.6,486.3,521.6,482.5,520.8z M325,426.2c10.4-28,20.7-55.9,31.1-83.8c0.2,0,0.4,0,0.6,0
	c9.6,27.9,19.2,55.8,28.8,83.6C383,426.8,328.9,427,325,426.2z"/>
</svg>
