<?xml version="1.0" encoding="utf-8"?>
<!-- Generator: Adobe Illustrator 18.1.1, SVG Export Plug-In . SVG Version: 6.00 Build 0)  -->
<svg version="1.1" id="Layer_1" xmlns="http://www.w3.org/2000/svg" xmlns:xlink="http://www.w3.org/1999/xlink" x="0px" y="0px"
	 viewBox="0 0 960 560" enable-background="new 0 0 960 560" xml:space="preserve">
<path fill="#7D7E7E" d="M472.3,400.8c0-4.4-3.3-9.9-8.8-9.9s-7.7,5.5-8.8,9.9H472.3z"/>
<path fill="#7D7E7E" d="M527.2,414c6.6,0,8.8-6.6,8.8-12.1s-2.2-12.1-8.8-12.1c-5.5,0-8.8,6.6-8.8,12.1
	C518.4,407.4,520.6,414,527.2,414z"/>
<path fill="#7D7E7E" d="M392.2,331.6c-5.5,0-7.7,5.5-8.8,9.9h16.5C399.8,337.1,397.6,331.6,392.2,331.6z"/>
<path fill="#7D7E7E" d="M593.1,331.6c-5.5,0-7.7,5.5-8.8,9.9h16.5C601.9,337.1,598.6,331.6,593.1,331.6z"/>
<path fill="#7D7E7E" d="M558,389.8c-5.5,0-8.8,6.6-8.8,12.1s2.2,12.1,8.8,12.1c6.6,0,8.8-6.6,8.8-12.1
	C565.6,396.4,563.5,389.8,558,389.8z"/>
<path fill="#7D7E7E" d="M527.2,331.6c-5.5,0-7.7,5.5-8.8,9.9h16.5C534.9,337.1,532.7,331.6,527.2,331.6z"/>
<path fill="#7D7E7E" d="M492.1,449.1c-5.5,0-7.7,5.5-8.8,9.9h16.5C499.8,453.5,497.6,449.1,492.1,449.1z"/>
<path fill="#7D7E7E" d="M380.1,449.1c-5.5,0-7.7,5.5-8.8,9.9h16.5C387.8,453.5,385.6,449.1,380.1,449.1z"/>
<path fill="#7D7E7E" d="M609.6,192.2c6.6,0,12.1-3.3,15.4-7.7c3.3-4.4,4.4-11,4.4-17.6h-9.9c-9.9,0-24.2,1.1-24.2,14.3
	C595.3,188.9,601.9,192.2,609.6,192.2z"/>
<path fill="#7D7E7E" d="M709.5,0h-459c0,0-50.5,0-50.5,50.5v459c0,0,0,50.5,50.5,50.5h459c0,0,50.5,0,50.5-50.5v-459
	C760,50.5,760,0,709.5,0z M588.7,160.3c7.7-4.4,18.7-4.4,27.5-4.4h12.1c0-13.2-5.5-17.6-18.7-17.6c-8.8,0-18.7,3.3-25.3,8.8v-19.8
	c8.8-4.4,19.8-6.6,28.5-6.6c25.3,0,36.2,11,36.2,35.1v11c0,8.8,0,14.3,0,20.9c0,6.6,0,12.1,1.1,18.7h-18.7
	c-1.1-4.4-1.1-9.9-1.1-12.1l0,0c-5.5,8.8-15.4,14.3-25.3,14.3c-14.3,0-28.5-8.8-28.5-24.2C575.5,171.3,581,163.6,588.7,160.3z
	 M521.7,123h18.7v18.7l0,0c1.1-7.7,9.9-20.9,23.1-20.9c2.2,0,4.4,0,6.6,1.1v22c-2.2-1.1-5.5-2.2-9.9-2.2c-17.6,0-17.6,22-17.6,34
	v30.7h-22V123H521.7z M467.9,120.8c30.7,0,39.5,20.9,39.5,50.5h-57.1c1.1,13.2,9.9,20.9,24.2,20.9c11,0,19.8-4.4,27.5-8.8v17.6
	c-7.7,4.4-16.5,6.6-28.5,6.6c-27.5,0-42.8-15.4-42.8-42.8C429.5,141.6,441.6,120.8,467.9,120.8z M421.8,124.1l-2.2,17.6
	c-4.4-2.2-7.7-3.3-14.3-3.3c-13.2,0-22,11-22,26.4s7.7,27.5,22,27.5c6.6,0,13.2-2.2,16.5-4.4l1.1,17.6c-6.6,2.2-13.2,2.2-22,2.2
	c-27.5,0-40.6-18.7-40.6-43.9c0-24.2,14.3-42.8,40.6-42.8C409.7,120.8,416.3,121.9,421.8,124.1z M387.8,42.8c2.2,0,4.4,0,5.5,1.1
	c-11,2.2-19.8,13.2-19.8,25.3s8.8,22,19.8,25.3l0,0c0,0,0,0,1.1,0c-32.9,3.3-58.2,23.1-58.2,47.2c0,2.2,0,3.3,0,5.5h-20.9
	c0-1.1,0-3.3,0-5.5c0-25.3,29.6-46.1,65.9-47.2c-11-3.3-18.7-13.2-18.7-24.2C362.5,53.8,374.6,42.8,387.8,42.8z M354.8,47.2
	c2.2,0,3.3,0,5.5,1.1c-9.9,2.2-17.6,11-17.6,22s7.7,19.8,17.6,22l0,0c0,0,0,0,1.1,0c-29.6,3.3-52.7,20.9-52.7,41.7
	c0,1.1,0,3.3,0,4.4H290c0-1.1,0-3.3,0-4.4c0-23.1,26.4-41.7,59.3-42.8c-9.9-2.2-16.5-11-16.5-22S342.7,47.2,354.8,47.2z M267,130.7
	c0-20.9,24.2-37.3,53.8-38.4c-8.8-2.2-15.4-9.9-15.4-19.8c0-11,8.8-20.9,20.9-20.9c1.1,0,3.3,0,4.4,0c-8.8,2.2-15.4,9.9-15.4,19.8
	s6.6,17.6,15.4,19.8l0,0c0,0,0,0,1.1,0c-26.4,3.3-47.2,18.7-47.2,38.4c0,1.1,0,2.2,0,4.4h-16.5C267,134,267,131.8,267,130.7z
	 M288.9,359.1c-6.6,0-11-3.3-11-5.5c0-1.1,1.1-2.2,2.2-2.2c2.2,0,3.3,4.4,8.8,4.4c3.3,0,6.6-2.2,6.6-5.5c0-2.2-2.2-3.3-4.4-4.4
	l-6.6-3.3c-3.3-1.1-5.5-3.3-5.5-6.6c0-4.4,4.4-7.7,8.8-7.7c5.5,0,11,2.2,9.9,4.4c0,1.1,0,2.2-2.2,2.2c-1.1,0-3.3-3.3-7.7-3.3
	c-3.3,0-5.5,1.1-5.5,4.4c0,1.1,1.1,2.2,2.2,3.3l5.5,2.2c5.5,2.2,8.8,4.4,8.8,8.8C298.8,355.8,294.4,359.1,288.9,359.1z M327.4,355.8
	c0,2.2-1.1,2.2-2.2,2.2c-1.1,0-2.2-1.1-2.2-2.2v-2.2l0,0c-2.2,3.3-4.4,4.4-7.7,4.4c-8.8,0-12.1-6.6-12.1-15.4
	c0-7.7,4.4-15.4,12.1-15.4c3.3,0,5.5,1.1,7.7,4.4l0,0v-2.2c0-1.1,1.1-2.2,2.2-2.2c1.1,0,2.2,1.1,2.2,2.2V355.8z M362.5,414
	c0,2.2-1.1,2.2-2.2,2.2c-1.1,0-2.2-1.1-2.2-2.2v-25.3c0-1.1,1.1-2.2,2.2-2.2c1.1,0,2.2,1.1,2.2,2.2V414z M360.3,382.1
	c-1.1,0-2.2-1.1-2.2-2.2c0-1.1,1.1-2.2,2.2-2.2c1.1,0,2.2,1.1,2.2,2.2C363.6,381,361.4,382.1,360.3,382.1z M362.5,332.7
	c-3.3,0-6.6,2.2-6.6,7.7v16.5c0,2.2-1.1,2.2-2.2,2.2c-1.1,0-2.2-1.1-2.2-2.2v-16.5c0-6.6-3.3-7.7-6.6-7.7c-3.3,0-6.6,2.2-6.6,7.7
	v16.5c0,2.2-1.1,2.2-2.2,2.2c-1.1,0-2.2-1.1-2.2-2.2v-25.3c0-1.1,1.1-2.2,2.2-2.2c1.1,0,2.2,1.1,2.2,2.2v1.1l0,0
	c1.1-2.2,4.4-4.4,7.7-4.4s6.6,2.2,7.7,5.5c2.2-3.3,5.5-5.5,8.8-5.5c5.5,0,11,3.3,11,11v16.5c0,2.2-1.1,2.2-2.2,2.2
	c-1.1,0-2.2-1.1-2.2-2.2v-15.4C369.1,333.8,365.8,332.7,362.5,332.7z M373.5,390.9c1.1-2.2,4.4-4.4,7.7-4.4c5.5,0,11,3.3,11,11V414
	c0,2.2-1.1,2.2-2.2,2.2s-2.2-1.1-2.2-2.2v-17.6c0-4.4-3.3-6.6-7.7-6.6c-3.3,0-7.7,2.2-7.7,7.7V414c0,2.2-1.1,2.2-2.2,2.2
	c-1.1,0-2.2-1.1-2.2-2.2v-25.3c0-1.1,1.1-2.2,2.2-2.2c1.1,0,2.2,1.1,2.2,2.2L373.5,390.9L373.5,390.9z M392.2,355.8
	c6.6,0,7.7-4.4,9.9-4.4c1.1,0,2.2,0,2.2,2.2c0,2.2-4.4,5.5-11,5.5c-9.9,0-13.2-7.7-13.2-15.4c0-7.7,4.4-15.4,12.1-15.4
	c8.8,0,12.1,6.6,12.1,14.3c0,1.1,0,2.2-2.2,2.2h-17.6C383.4,350.3,387.8,355.8,392.2,355.8z M381.2,472.2c6.6,0,7.7-4.4,9.9-4.4
	c1.1,0,2.2,0,2.2,2.2s-4.4,5.5-11,5.5c-9.9,0-13.2-7.7-13.2-15.4s4.4-15.4,12.1-15.4c8.8,0,12.1,6.6,12.1,14.3c0,1.1,0,2.2-2.2,2.2
	h-17.6C372.4,466.7,375.7,472.2,381.2,472.2z M419.6,472.2c0,2.2-1.1,2.2-2.2,2.2c-1.1,0-2.2-1.1-2.2-2.2v-17.6
	c0-4.4-3.3-6.6-7.7-6.6c-3.3,0-7.7,2.2-7.7,7.7v16.5c0,2.2-1.1,2.2-2.2,2.2c-1.1,0-2.2-1.1-2.2-2.2v-25.3c0-1.1,1.1-2.2,2.2-2.2
	c1.1,0,2.2,1.1,2.2,2.2v1.1l0,0c1.1-2.2,4.4-4.4,7.7-4.4c5.5,0,11,3.3,11,11v17.6H419.6z M436.1,414l-6.6-20.9l0,0l-6.6,22
	c0,1.1-1.1,2.2-2.2,2.2s-2.2,0-2.2-2.2l-8.8-25.3c0-1.1,0-1.1,0-1.1c0-1.1,1.1-2.2,2.2-2.2s2.2,1.1,2.2,2.2l6.6,22l0,0l6.6-22
	c0-1.1,1.1-2.2,2.2-2.2c1.1,0,2.2,1.1,2.2,2.2l6.6,22l0,0l6.6-22c0-1.1,1.1-2.2,2.2-2.2s2.2,1.1,2.2,2.2v1.1l-8.8,25.3
	c0,1.1-2.2,2.2-2.2,2.2C437.2,417.3,436.1,416.2,436.1,414z M413,332.7c1.1-2.2,4.4-4.4,7.7-4.4c5.5,0,11,3.3,11,11v16.5
	c0,2.2-1.1,2.2-2.2,2.2s-2.2-1.1-2.2-2.2v-17.6c0-4.4-3.3-6.6-7.7-6.6c-3.3,0-7.7,2.2-7.7,7.7v16.5c0,2.2-1.1,2.2-2.2,2.2
	s-2.2-1.1-2.2-2.2v-25.3c0-1.1,1.1-2.2,2.2-2.2s2.2,1.1,2.2,2.2L413,332.7L413,332.7z M476.7,449.1l-8.8,25.3
	c-1.1,1.1-2.2,2.2-2.2,2.2c-1.1,0-2.2,0-2.2-2.2l-6.6-20.9l0,0l-6.6,22c0,1.1-1.1,2.2-2.2,2.2c-1.1,0-2.2,0-2.2-2.2l-8.8-25.3
	c0-1.1,0-1.1,0-1.1c0-1.1,1.1-2.2,2.2-2.2c1.1,0,2.2,1.1,2.2,2.2l6.6,22l0,0l6.6-22c0-1.1,1.1-2.2,2.2-2.2c1.1,0,2.2,1.1,2.2,2.2
	l6.6,22l0,0l6.6-22c0-1.1,1.1-2.2,2.2-2.2S476.7,448,476.7,449.1C476.7,446.9,476.7,448,476.7,449.1z M466.8,332.7
	c1.1-2.2,4.4-4.4,7.7-4.4c5.5,0,11,3.3,11,11v16.5c0,2.2-1.1,2.2-2.2,2.2c-1.1,0-2.2-1.1-2.2-2.2v-17.6c0-4.4-3.3-6.6-7.7-6.6
	c-3.3,0-7.7,2.2-7.7,7.7v16.5c0,2.2-1.1,2.2-2.2,2.2c-1.1,0-2.2-1.1-2.2-2.2v-25.3c0-1.1,1.1-2.2,2.2-2.2c1.1,0,2.2,1.1,2.2,2.2
	L466.8,332.7L466.8,332.7z M485.5,376.6V414c0,2.2-1.1,2.2-2.2,2.2c-1.1,0-2.2-1.1-2.2-2.2v-37.3c0-1.1,1.1-2.2,2.2-2.2
	C484.4,374.4,485.5,375.5,485.5,376.6z M464.6,386.5c8.8,0,12.1,6.6,12.1,14.3c0,1.1,0,2.2-2.2,2.2h-17.6c0,5.5,3.3,9.9,8.8,9.9
	c6.6,0,7.7-4.4,9.9-4.4c1.1,0,2.2,0,2.2,2.2c0,2.2-4.4,5.5-11,5.5c-9.9,0-13.2-7.7-13.2-15.4S455.8,386.5,464.6,386.5z M452.5,355.8
	v-25.3c0-1.1,1.1-2.2,2.2-2.2s2.2,1.1,2.2,2.2v25.3c0,2.2-1.1,2.2-2.2,2.2C452.5,359.1,452.5,358,452.5,355.8z M453.6,323.9
	c-1.1,0-2.2-1.1-2.2-2.2s1.1-2.2,2.2-2.2s2.2,1.1,2.2,2.2C456.9,322.8,455.8,323.9,453.6,323.9z M492.1,472.2c6.6,0,7.7-4.4,9.9-4.4
	c1.1,0,2.2,0,2.2,2.2s-4.4,5.5-11,5.5c-9.9,0-13.2-7.7-13.2-15.4s4.4-15.4,12.1-15.4c8.8,0,12.1,6.6,12.1,14.3c0,1.1,0,2.2-2.2,2.2
	h-17.6C484.4,466.7,487.7,472.2,492.1,472.2z M492.1,386.5c1.1,0,2.2,1.1,2.2,2.2l6.6,20.9l0,0l6.6-20.9c0-1.1,1.1-2.2,2.2-2.2
	s2.2,1.1,2.2,2.2v1.1l-8.8,25.3c0,1.1-1.1,1.1-2.2,1.1s-2.2,0-2.2-1.1l-8.8-25.3v-1.1C489.9,387.6,491,386.5,492.1,386.5z
	 M489.9,330.5c0-1.1,1.1-2.2,2.2-2.2c1.1,0,2.2,1.1,2.2,2.2l6.6,20.9l0,0l6.6-20.9c0-1.1,1.1-2.2,2.2-2.2s2.2,1.1,2.2,2.2v1.1
	l-8.8,25.3c0,1.1-1.1,1.1-2.2,1.1s-2.2,0-2.2-1.1l-8.8-25.3C489.9,331.6,489.9,330.5,489.9,330.5z M514,472.2c0,2.2-1.1,2.2-2.2,2.2
	c-1.1,0-2.2-1.1-2.2-2.2v-37.3c0-1.1,1.1-2.2,2.2-2.2c1.1,0,2.2,1.1,2.2,2.2V472.2z M527.2,355.8c6.6,0,7.7-4.4,9.9-4.4
	c1.1,0,2.2,0,2.2,2.2c0,2.2-4.4,5.5-11,5.5c-9.9,0-13.2-7.7-13.2-15.4c0-7.7,4.4-15.4,12.1-15.4c8.8,0,12.1,6.6,12.1,14.3
	c0,1.1,0,2.2-2.2,2.2h-18.7C519.5,350.3,522.8,355.8,527.2,355.8z M527.2,386.5c3.3,0,5.5,1.1,7.7,4.4l0,0v-2.2
	c0-1.1,1.1-2.2,2.2-2.2c1.1,0,2.2,1.1,2.2,2.2V414c0,2.2-1.1,2.2-2.2,2.2c-1.1,0-2.2-1.1-2.2-2.2v-2.2l0,0c-2.2,3.3-4.4,4.4-7.7,4.4
	c-8.8,0-12.1-6.6-12.1-15.4C515.1,394.2,518.4,386.5,527.2,386.5z M538.2,474.4h-16.5c-2.2,0-2.2-1.1-2.2-1.1c0-1.1,0-1.1,1.1-2.2
	l14.3-22h-13.2c-1.1,0-2.2-1.1-2.2-2.2c0-1.1,1.1-2.2,2.2-2.2h15.4c1.1,0,2.2,1.1,2.2,1.1c0,1.1,0,1.1-1.1,2.2l-14.3,22h14.3
	c1.1,0,2.2,1.1,2.2,2.2C540.4,474.4,539.3,474.4,538.2,474.4z M542.6,353.6c0-1.1,1.1-2.2,2.2-2.2c2.2,0,3.3,4.4,8.8,4.4
	c3.3,0,6.6-2.2,6.6-5.5c0-2.2-2.2-3.3-4.4-4.4l-6.6-3.3c-3.3-1.1-5.5-3.3-5.5-6.6c0-4.4,4.4-7.7,8.8-7.7c5.5,0,11,2.2,9.9,4.4
	c0,1.1,0,2.2-2.2,2.2c-1.1,0-3.3-3.3-7.7-3.3c-3.3,0-5.5,1.1-5.5,4.4c0,1.1,1.1,2.2,2.2,3.3l5.5,2.2c4.4,1.1,7.7,3.3,7.7,7.7
	c0,5.5-4.4,8.8-11,8.8C547,359.1,542.6,354.7,542.6,353.6z M549.2,472.2c0,2.2-1.1,2.2-2.2,2.2c-1.1,0-2.2-1.1-2.2-2.2v-25.3
	c0-1.1,1.1-2.2,2.2-2.2c1.1,0,2.2,1.1,2.2,2.2V472.2z M547,440.3c-1.1,0-2.2-1.1-2.2-2.2c0-1.1,1.1-2.2,2.2-2.2s2.2,1.1,2.2,2.2
	C550.3,439.2,549.2,440.3,547,440.3z M560.2,484.2c0,2.2-1.1,2.2-2.2,2.2c-1.1,0-2.2-1.1-2.2-2.2V448c0-2.2,1.1-2.2,2.2-2.2
	s2.2,1.1,2.2,2.2V484.2z M558,440.3c-1.1,0-2.2-1.1-2.2-2.2c0-1.1,1.1-2.2,2.2-2.2s2.2,1.1,2.2,2.2
	C561.3,439.2,560.2,440.3,558,440.3z M565.6,414v-2.2l0,0c-2.2,3.3-4.4,4.4-7.7,4.4c-8.8,0-12.1-6.6-12.1-15.4
	c0-7.7,4.4-15.4,12.1-15.4c3.3,0,5.5,1.1,7.7,4.4l0,0v-2.2c0-1.1,1.1-2.2,2.2-2.2c1.1,0,2.2,1.1,2.2,2.2v25.3c0,2.2-1.1,2.2-2.2,2.2
	C566.7,417.3,565.6,416.2,565.6,414z M576.6,329.4c1.1,0,2.2,1.1,2.2,1.1c0,1.1,0,2.2-2.2,2.2h-2.2v24.2c0,2.2-1.1,2.2-2.2,2.2
	c-1.1,0-2.2-1.1-2.2-2.2v-24.2h-2.2c-1.1,0-2.2-1.1-2.2-2.2s0-1.1,2.2-1.1h2.2v-6.6c0-2.2,1.1-2.2,2.2-2.2c1.1,0,2.2,1.1,2.2,2.2
	v6.6H576.6z M589.8,472.2c0,2.2-1.1,2.2-2.2,2.2c-1.1,0-2.2-1.1-2.2-2.2v-17.6c0-4.4-3.3-6.6-7.7-6.6c-3.3,0-7.7,2.2-7.7,7.7v16.5
	c0,2.2-1.1,2.2-2.2,2.2c-1.1,0-2.2-1.1-2.2-2.2v-25.3c0-1.1,1.1-2.2,2.2-2.2s2.2,1.1,2.2,2.2v1.1l0,0c1.1-2.2,4.4-4.4,7.7-4.4
	c5.5,0,11,3.3,11,11v17.6H589.8z M587.6,390.9c-2.2,0-6.6,2.2-6.6,8.8V414c0,2.2-1.1,2.2-2.2,2.2c-1.1,0-2.2-1.1-2.2-2.2v-25.3
	c0-1.1,1.1-2.2,2.2-2.2c1.1,0,2.2,1.1,2.2,2.2v3.3l0,0c1.1-3.3,4.4-5.5,6.6-5.5c2.2,0,2.2,1.1,2.2,2.2
	C590.9,389.8,589.8,390.9,587.6,390.9z M601.9,390.9h-2.2v24.2c0,2.2-1.1,2.2-2.2,2.2c-1.1,0-2.2-1.1-2.2-2.2v-24.2h-2.2
	c-1.1,0-2.2-1.1-2.2-2.2c0-1.1,0-1.1,2.2-1.1h2.2V381c0-2.2,1.1-2.2,2.2-2.2c1.1,0,2.2,1.1,2.2,2.2v6.6h2.2c1.1,0,2.2,1.1,2.2,1.1
	C604.1,389.8,603,390.9,601.9,390.9z M594.2,355.8c6.6,0,7.7-4.4,9.9-4.4c1.1,0,2.2,0,2.2,2.2c0,2.2-4.4,5.5-11,5.5
	c-9.9,0-13.2-7.7-13.2-15.4c0-7.7,4.4-15.4,12.1-15.4c8.8,0,12.1,6.6,12.1,14.3c0,1.1,0,2.2-2.2,2.2h-17.6
	C585.4,350.3,588.7,355.8,594.2,355.8z M621.6,332.7c-2.2,0-6.6,2.2-6.6,8.8v14.3c0,2.2-1.1,2.2-2.2,2.2s-2.2-1.1-2.2-2.2v-25.3
	c0-1.1,1.1-2.2,2.2-2.2c1.1,0,2.2,1.1,2.2,2.2v3.3l0,0c1.1-3.3,4.4-5.5,6.6-5.5c2.2,0,2.2,1.1,2.2,2.2
	C623.8,331.6,622.7,332.7,621.6,332.7z M639.2,355.8c6.6,0,7.7-4.4,9.9-4.4c1.1,0,2.2,0,2.2,2.2c0,2.2-4.4,5.5-11,5.5
	c-9.9,0-13.2-7.7-13.2-15.4c0-7.7,4.4-15.4,12.1-15.4c8.8,0,12.1,6.6,12.1,14.3c0,1.1,0,2.2-2.2,2.2h-17.6
	C631.5,350.3,634.8,355.8,639.2,355.8z M678.7,355.8c0,2.2-1.1,2.2-2.2,2.2c-1.1,0-2.2-1.1-2.2-2.2v-17.6c0-4.4-3.3-6.6-7.7-6.6
	c-3.3,0-7.7,2.2-7.7,7.7v16.5c0,2.2-1.1,2.2-2.2,2.2c-1.1,0-2.2-1.1-2.2-2.2v-25.3c0-1.1,1.1-2.2,2.2-2.2s2.2,1.1,2.2,2.2v1.1l0,0
	c1.1-2.2,4.4-4.4,7.7-4.4c5.5,0,11,3.3,11,11v17.6H678.7z M680.9,262.4H278v-3.3h403V262.4z"/>
<path fill="#7D7E7E" d="M469,137.3c-12.1,0-18.7,8.8-18.7,19.8h36.2C485.5,146,481.1,137.3,469,137.3z"/>
<path fill="#7D7E7E" d="M639.2,331.6c-5.5,0-7.7,5.5-8.8,9.9h16.5C646.9,337.1,644.7,331.6,639.2,331.6z"/>
<path fill="#7D7E7E" d="M315.3,331.6c-5.5,0-8.8,6.6-8.8,12.1c0,5.5,2.2,12.1,8.8,12.1c6.6,0,8.8-6.6,8.8-12.1
	C324.1,338.2,321.9,331.6,315.3,331.6z"/>
</svg>
