<?xml version="1.0" encoding="utf-8"?>
<!-- Generator: Adobe Illustrator 18.1.1, SVG Export Plug-In . SVG Version: 6.00 Build 0)  -->
<svg version="1.1" id="Laag_1" xmlns="http://www.w3.org/2000/svg" xmlns:xlink="http://www.w3.org/1999/xlink" x="0px" y="0px"
	 viewBox="0 0 43.5 52.7" enable-background="new 0 0 43.5 52.7" xml:space="preserve">
<g>
	<path fill="#979797" d="M39.4,0.5c1.9,3.4,1.8,7.1,1.4,10.9c-0.5,0.3-1,0.6-1.6,0.5c-0.8-0.2-1.3-0.8-1.9-1.2
		c-1.8-1.1-3.8-1.1-5.9-1.1c-7.1,0-14.3,0-21.4,0c-1.3,0-2.6,0.2-3.9-0.4C5.9,8.9,5.6,8.7,5.5,8.3C5.7,7,6.6,7,7.6,7
		c3.8,0.1,7.7-0.1,10.6,0.1c-2.2-0.2-5.4,0-8.6,0C5.3,7,5.3,7,5.4,2.6c0-0.7-0.2-1.4,0.4-2C6.5,0.4,7.3,0,8.1,0
		c9.7,0,19.5,0,29.2,0.1C38.1,0.1,38.7,0.4,39.4,0.5c-1.6,1.6-3.4,0.4-5.1,0.4c-7.1,0-14.2,0.6-21.3-0.1c8.2,0.9,16.3-0.4,24.5,0.5
		C38.3,1.3,38.9,1.1,39.4,0.5z"/>
	<path fill="#A0A0A0" d="M40.8,17.1c-0.1,0.7-0.1,1.3-0.2,2c-0.5,0.5-1.1,0.5-1.8,0.5c-0.8,0.1-1.6,0.2-2.4,0.4
		c-1,0.2-1.9,0.5-3,0.4c-1.4-0.1-2.7,0.4-4.1,0.2c-1.2,0.1-2.5,0.1-3.7-0.1c-1.8-0.1-3.6-0.4-5.4-0.3c-1.5,0.1-2.9,0.2-4.4,0.3
		c-1.3,0.3-2.6-0.1-3.8-0.6c-1-0.4-2.1-0.2-3.2-0.2c-0.9,0-1.7,0.3-2.6,0.1c-1-0.3-0.7-1.6-1.5-2c-0.2-2.4,1.1-4.9-0.3-7.2
		c2.1-1.2,3.3,0.1,4.2,1.7c0.2,0.5,0.4,1.1,0.9,1.5c3.3,1.3,6.9,1.5,10.4,1.5c6.5,0,13-0.2,19.5,0.1C40.2,15.7,41,16,40.8,17.1z"/>
	<path fill="#BABABA" d="M40.8,48.5c1.5,0.3,3,0.6,2.7,2.6c-0.3,2.1-2.1,1.7-3.4,1.7c-12.2,0-24.3,0.1-36.5,0
		c-1.4,0-3.6,0.7-3.6-1.6c0-2.2,2.3-1.5,3.6-1.9c1.7,1,3.6,1,5.5,1c9.1,0.1,18.2,0,27.3,0.1c1.3,0,2.5,0,3.4-1.2
		C40.1,48.8,40.4,48.6,40.8,48.5z"/>
	<path fill="#979797" d="M7.9,12.7c-1.1-0.7-2.2-1.4-3.4-2.1c0-0.7,0-1.4,0-2.1C4.9,8.1,5.3,8,5.7,8.4l0,0c4.8,0.8,9.7,0.2,14.5,0.3
		C26.1,9,31.9,8.6,37.7,9c0.7,1,0.1,1.2-0.7,1.2c-1.5,0.1-3.1,0-4.3,0c1.8,1,4.5-1.6,6.3,1.3c0,0.4-0.2,0.7-0.5,1
		c-1.9,0.8-3.8,0.4-5.7,0.3c-1,0-2,0-3,0c-1.4,0.1-2.8,0.1-4.2,0c-1.6,0.1-3.2,0.1-4.8,0c-1.5-0.1-3,0.2-4.6,0c-1.6,0-3.2-0.2-4.6,1
		C10.1,14.8,9.1,13.3,7.9,12.7z"/>
	<path fill="#7E7E7E" d="M40.8,49.2c0.8,2-0.5,2.2-2,2.2c-10.6,0-21.3,0-31.9,0c-1.6,0-2.7-0.7-3.3-2.2c0.2,0,0.4,0,0.7,0
		c0.6-0.3,1.3-0.7,2-0.7c2.4,0.8,4.7,1.3,7.1,0.1c0.7-0.4,1.4-0.7,2.2-0.5c4-0.1,8,0.3,12,0.1c1.8,0,3.6,0,5.3,0.1c0.3,0,0.7,0,1,0
		c1.2-0.1,2.3-0.5,3.5-0.2c0.3,0,0.7,0.1,1,0.1C39.4,48.1,40.1,48.5,40.8,49.2z"/>
	<path fill="#ABABAB" d="M5.7,8.4c-0.4,0-0.8,0-1.3,0.1c1.3-2.5,0-5.4,1.3-7.9c0,5.7,0,5.7,5.7,5.7c4-0.1,8,0.3,11.9,1.5
		c-4.1,0-8.3,0-12.4,0C9.2,7.8,7.4,7.5,5.7,8.4z"/>
	<path fill="#969696" d="M41.4,30.7c0.3,1-0.1,1.9-0.7,2.7c-0.7,0.5-1.6,0.5-2.5,0.7c-8.9,0.4-17.8-0.2-26.7,0.4
		c-1.7,0.1-3.3-0.1-4.9-0.9c-0.9-0.5-1.4-1.2-0.4-2.1C7.5,30.7,9,31,10.4,31c6.9,0,13.8,0,20.7,0c2,0,4.1-0.1,5.9-1
		c0.4-0.2,0.7-0.3,1.1-0.4C39.4,29.5,40.4,29.8,41.4,30.7z"/>
	<path fill="#A7A7A7" d="M6.5,32c0,0.3,0,0.5,0,0.8c0.8,0.8,1.3,1.6,1.2,2.8c-0.4,4,0,8-0.3,12.1c-0.1,0.4-0.2,0.8-0.5,1.2
		c-0.2,0.1-0.3,0.3-0.5,0.4c-0.7-0.1-1.5-0.1-2.2-0.2c1.6-5.9,1-11.9,0.3-17.8c0.4-0.5,0.7-0.9,1.3-1.1c0.3,0,0.6,0.1,0.8,0.2
		c0.2,0.2,0.3,0.5,0.3,0.8C6.9,31.5,6.7,31.8,6.5,32z"/>
	<path fill="#B8B8B8" d="M39.3,32.8c0.5,0.2,0.9,0.4,1.4,0.6c0,5,0.1,10.1,0.1,15.1c0,0.2,0,0.5,0,0.7c-0.9,0-1.9,0-2.8,0
		c-0.3-0.3-0.4-0.7-0.4-1.1c0.9-3.8,0.7-7.7,0.6-11.6C38.2,35,38.1,33.7,39.3,32.8z"/>
	<path fill="#AFAFAF" d="M41.4,30.7c-1.2,0-2.3,0-3.5,0c-0.4,0.1-0.8,0-0.9-0.5c0.9-2.9,1.5-5.9,1.3-9c-0.1-1.1,0.2-2.1,1.1-2.8
		c0.4,0.2,0.8,0.4,1.3,0.7C41.2,22.9,40.2,26.9,41.4,30.7z"/>
	<path fill="#AAAAAA" d="M6.6,30.5c-0.7,0.3-1.4,0.6-2.1,0.9c0.9-4.5,0.7-9,0.3-13.5c0.5,0.5,1,0.9,1.5,1.4
		C8.3,22.9,8,26.7,6.6,30.5z"/>
	<path fill="#B8B8B8" d="M40.8,17.1c-0.5-0.3-1-0.5-1.5-0.8c-0.9-0.5-1.7-1.1-1.7-2.3c-0.1-0.9,0.2-1.6,1-2l0,0
		c0.3-0.2,0.3-0.7,0.7-0.7c0.5,0,1,0,1.5,0.1C40.9,13.3,40.9,15.2,40.8,17.1z"/>
	<path fill="#828282" d="M39.4,0.5c-0.8,1.5-2,1.2-3.4,1.1C32,1.1,28,1.4,23.9,1.6C18.7,2,13.4,1.7,8.1,1.7c0-0.4,0-0.8,0-1.2
		C18.5,0.5,29,0.5,39.4,0.5L39.4,0.5z"/>
	<path fill="#888888" d="M37.9,9.8c-1.4-0.8-3-0.7-4.5-0.7c-7.7,0-15.4,0-23.1,0c-1.5,0-3.1,0.2-4.5-0.7c10.1,0,20.2,0,30.4,0
		c0.9,0,2.7-1,2.5,1.3C38.4,10.1,38.2,10.1,37.9,9.8z"/>
	<path fill="#ABABAB" d="M37.9,9.8c0.2,0,0.4,0,0.7,0c0.2,0.5,0.5,1,0.7,1.5c-0.2,0.2-0.5,0.5-0.7,0.7c-1.4-2.2-3.6-1.2-5.5-1.4
		c-1.4-0.1-2.8,0-4.2-0.8C31.9,9.8,34.9,9.8,37.9,9.8z"/>
	<path fill="#F9F9F9" d="M6.6,30.5c-0.1-3.8-0.2-7.5-0.3-11.3c0.6-0.6,1.4-0.6,2.2-0.7c0.9,1.2,0.2,2.7,0.5,4
		c0.2,1.2-0.4,2.6,1.3,3.2c1.6-1.3,0.5-3.1,0.8-4.7c-0.2-1,0.5-1.8,1-2.5c1.3,0,2.7-0.3,3.8,0.7c2.5,1.6,1.1,4.4,1.9,6.5
		c1.3,0.9,1.6,0.4,1.7-1.1c0.1-1.8,0-3.5,0.1-5.3c0-0.3,0.1-0.6,0.3-0.9c2,0.1,4.1-0.6,5.9,0.7c1.4,1.2,1.7,2.7,1.6,3.8
		c-0.3-1.4,1.1-2.9,1.8-4.5c1.5-0.1,3.1-0.1,4.5,0.7c1.8,1.9,0.5,4.3,1.2,6.4c1.4,0.8,1.6-0.3,1.7-1.2c0.3-1.5,0-3-0.4-4.5
		c-0.1-0.5,0-1,0.2-1.4c1,0,1.9,0,2.9,0c0,2.8,0,5.7,0,8.5c0.1,1.8-0.7,2.9-2.3,3.5c-0.4,0.7-1.1,0.8-1.9,0.8c-8.9,0-17.9,0-26.8,0
		c-0.7,0-1.4-0.2-1.9-0.8L6.6,30.5z"/>
	<path fill="#989898" d="M29.3,18.5c0.1,2.8,0,5.6,0.2,8.4c0.1,1.3-0.1,2.1-1.5,2.1c-1.4,0-2.3-0.5-2.3-2c0-2.6,0.1-5.2,0.2-7.7
		C27,18.9,28.2,18.7,29.3,18.5z"/>
	<path fill="#CACACA" d="M38.6,14.2c0.2,0.7,0.5,1.4,0.7,2.1c-9.8,0-19.6,0-29.4,0c-1.3,0-3.7,0.7-2.1-2.2c1.7-0.6,3.4,0.4,5.1-0.2
		c1.3,0,2.7,0.3,4-0.4c0.9-0.2,1.8-0.5,2.7-0.3c2,0.8,4.1,1,6.2,0.9c1.4-0.6,2.7,0,4,0c1,0,1.9,0,2.9,0C34.7,14.3,36.7,12,38.6,14.2
		z"/>
	<path fill="#999999" d="M16.5,27c-0.2-2.6-0.4-5.2-0.6-7.9c1.4,0,2.8-0.1,4.1-0.7c0,0.2,0.1,0.5,0.1,0.7c0.2,2.8-1,5.6,0,8.4
		c0.2,0.7,0,1.1-0.8,1.2C17.9,29,16.7,28.9,16.5,27z"/>
	<path fill="#878787" d="M33.8,27.1c0-2.6-0.1-5.3-0.1-7.9c0.9-0.2,1.8-0.5,2.7-0.7c0.2,0.3,0.4,0.5,0.7,0.8c0.2,0.6,0,1.1-0.2,1.6
		c-0.4,2.4,0.3,4.8-0.5,7.1C35,29.3,34.1,29.1,33.8,27.1z"/>
	<path fill="#939393" d="M12.1,18.4c0.4,0.7,0.5,1.4-0.1,2.1c-0.5,0.6-0.8,1.3-1,2.1c-1.8,1.8,0.2,3.4,0.4,5.1c0,0.5-0.3,1-0.7,1.3
		c-1.4,0-2.7-0.3-2.8-2c0-2.9-0.6-5.8,0.5-8.6C9.7,18.5,10.9,18.4,12.1,18.4z"/>
	<path fill="#BEBEBE" d="M12.8,14.9c-1.9,1-3.5,0.8-5-0.8c0-0.5,0-0.9,0-1.4c1.2-0.7,2.4,0.1,3.5,0C13.1,12.7,13.6,13.3,12.8,14.9z"
		/>
	<path fill="#F7F7F7" d="M25.8,15.6c-2.2,0.1-4.4,0-6.5-0.7c-0.8-1.8,0.6-2.6,1.6-3.5c1.6,0,3.2,0,4.8,0
		C27.3,12.7,28,14.1,25.8,15.6z"/>
	<path fill="#B7B7B7" d="M38.6,14.2c-1.9,0.4-3.6,1.6-5.7,1.4c-1.4-1.4-1.5-2.8-0.1-4.2c2,0,3.9-0.3,5.8,0.7
		C38.6,12.7,38.6,13.4,38.6,14.2z"/>
	<path fill="#B2B2B2" d="M25.8,15.6c0-1.4-0.1-2.8-0.1-4.2c1.5,0,3,0,4.5,0c1.4,1.4,1.3,2.9-0.1,4.2C28.6,15.6,27.2,15.6,25.8,15.6z
		"/>
	<path fill="#ADADAD" d="M20.8,11.4c0,1.4-0.4,2.6-1.6,3.5c-0.9,0-1.8,0-2.7,0c-2-0.7-1.9-2-0.9-3.5C17.4,11.3,19.1,11.4,20.8,11.4z
		"/>
	<path fill="#F4F4F4" d="M15.7,11.3c0.1,1.2,0.1,2.5,0.9,3.5c-1.3,0.9-2.5,0.9-3.8,0c-0.1-1-0.6-1.6-1.4-2.1
		C12.4,11,14.1,11.4,15.7,11.3z"/>
	<path fill="#F5F5F5" d="M30,15.6c0-1.4,0.1-2.8,0.1-4.2c0.9,0,1.8,0,2.7,0c0,1.4,0.1,2.8,0.1,4.2C32,15.6,31,15.6,30,15.6z"/>
	<path fill="#FAFAFA" d="M39.3,32.8c0,4.2,0.1,8.4,0.1,12.6c0,1.2,0.1,2.4-1.3,2.9c-1.9-2.5-1.8-5.5-1.7-8.4c0-1.3,0-1.3-1.3-0.8
		c-0.1,3.3-0.2,6.6-1.9,9.5c-1,0.4-2,0.2-2.9-0.4c-1.1-2.2-0.4-4.6-0.6-6.9c-0.1-1.3,0.4-2.9-1.2-3.7c-3.6-1.1-7.2-2.1-10.5,0.9
		c-1.3,2.2-1.1,4.6-1.1,6.9c0,1.6,0,3.2-2.1,3.6c-0.4,0.3-0.8,0.6-1.2,0.9c-0.6,0.2-1,0-1.4-0.4c-0.4-1.1-1.1-2.1-1.7-3.1
		c-0.4-2.1,0.2-4.2-0.6-6.8c-2,3-0.1,6.2-1.6,8.8c-0.6,0.5-1.3,0.6-1.9,0c0-5.2,0.1-10.4,0.1-15.7C17.5,32.8,28.4,32.8,39.3,32.8z"
		/>
	<path fill="#AEAEAE" d="M30.7,47.8c0.6,0.6,1.4,0.7,2.3,0.7c0.4,0.5,0.4,0.9,0,1.4c-1.4-0.8-2.9-0.5-4.3-0.7
		c-2.7-1-5.6-0.9-8.4-0.6c-4.1,0.4-4.1,0.5-4.1-3.7c0-2,0-4,0-6.1c0.4-1.1,1.3-1,2.1-0.7c2.7,0.8,5.4,0.8,8.1,0.5
		c1.7-0.2,2.7,0.6,3.3,2c0,1.3,0.3,2.6-0.2,3.9c-0.5,0.9-1.3,0.8-2.1,0.8c-1,0-2,0-2.9,0c1,0,2.1,0,3.1,0c0.3,0,0.7,0,1,0
		C29.9,45.5,29.5,47.3,30.7,47.8z"/>
	<path fill="#F7F7F7" d="M37,49.1c-1,0.2-2.1,0.5-3.1,0.7c-1.2-3.3-0.5-6.7-0.5-10c0-1.3,1.3-1.5,2.4-1.5c0.8,0.2,1.7,0.6,1.7,1.5
		C37.4,42.9,38.2,46,37,49.1z"/>
	<path fill="#909090" d="M16.5,38.5c0,2.3,0,4.5,0,6.8c-0.1,2.5,1.1,3.4,3.6,2.9c2.9-0.6,5.9-0.8,8.6,1.1c-4.6-0.1-9.2-0.1-13.8-0.2
		c1.7-2.7,0.6-5.7,0.9-8.5c0.1-1.4,0.1-2.8,0.2-4.2c0.7-0.2,0.9,0.2,1.2,0.7C17.1,37.6,16.9,38.1,16.5,38.5z"/>
	<path fill="#9B9B9B" d="M37,49.1c-0.3-3.3,1.6-6.9-1.3-9.9c-1-0.5-2.1-1-2.7-2.1c0.7-1.8,2.3-1.5,3.6-1.2c1.5,0.4,1.3,1.8,1.3,2.9
		c0.1,3.2,0,6.4,0.1,9.6c0,0.3,0,0.5-0.1,0.8C37.7,49.1,37.3,49.1,37,49.1z"/>
	<path fill="#999999" d="M33,37.1c1.2,0.3,2.1,1.1,2.7,2.1c-1.8,0.2-2.2,1.4-2.1,3c0.1,2.5,0.2,5.1,0.2,7.6
		c-0.3,0.1-0.6,0.1-0.9,0.2c0-0.5,0-0.9,0-1.4C33,44.7,33,40.9,33,37.1z"/>
	<path fill="#939393" d="M12.9,49.2c0.2,0.2,0.5,0.5,0.7,0.7c-2.5,0.8-4.9,1.6-7.1-0.6c0,0,0-0.2,0-0.2
		C8.6,48.5,10.8,47.2,12.9,49.2z"/>
	<path fill="#858585" d="M6.5,30.5c10.2,0,20.4,0,30.6-0.1c0.3,0.1,0.5,0.1,0.8,0.2c0,0.2,0,0.4,0,0.5c-1.4,0.9-3,0.4-4.5,0.4
		c-7.8,0.1-15.7,0-23.5,0c-1.1,0-2.4,0.4-3.4-0.4C6.5,31,6.5,30.8,6.5,30.5z"/>
	<path fill="#F3F3F3" d="M6.5,31.2c10.5,0,21,0,31.5,0c-0.2,1.5-1.5,0.7-2.2,0.7C26,32,16.3,32,6.5,32C6.5,31.7,6.5,31.5,6.5,31.2z"
		/>
	<path fill="#BDBDBD" d="M12.9,49.2c-2.1,0-4.3,0-6.4-0.1c0-0.2,0-0.5,0-0.7c0.5-0.3,1-0.5,1.5-0.8c0.6-2.3,0.1-4.7,0.3-7
		c0.1-0.8,0-1.8,1.1-1.8c1,0,1.2,0.8,1.4,1.7c0.3,1.9-0.9,4,0.9,5.7C12.6,47,12.9,48,12.9,49.2z"/>
	<path fill="#ABABAB" d="M16.5,27c0.6,0.5,1.1,1.2,2.3,1.2c0.2-3-1.2-6.4,1.2-9.1c1.3,2.6,0.6,5.3,0.6,8c0,1.5-1.1,2-2.4,1.9
		C16.9,29.1,15.8,28.8,16.5,27z"/>
	<path fill="#9F9F9F" d="M10.7,29.1c0-0.4,0-0.9,0-1.3c-2.3-1.9-1.7-4.2-0.7-6.5c0.6-0.2,1.3-0.5,1.9-0.7c0.1,2.2,0.1,4.4,0.4,6.6
		C12.6,28.7,12,29.1,10.7,29.1z"/>
	<path fill="#9B9B9B" d="M33.8,27.1c0.6,0.6,1.1,1.3,2,0.6c1.4-2.5,0.3-5.2,0.6-7.8c0.2-0.2,0.4-0.4,0.6-0.6
		c1.7,2.6,0.8,5.5,0.6,8.2C37.7,29,36.2,29,35,28.9C33.7,28.9,33.3,28.2,33.8,27.1z"/>
	<path fill="#AEAEAE" d="M36.5,19.9c0.6,2.7,1.9,5.4-0.6,7.8C35.9,25.1,35.2,22.4,36.5,19.9z"/>
	<path fill="#C2C2C2" d="M10.1,21.3c-0.1,2.2-0.3,4.4,0.7,6.5c-2.2-1.3-3-5.3-1.4-7C9.4,20.7,9.8,21.1,10.1,21.3z"/>
	<path fill="#8F8F8F" d="M11.6,46.2c-1.3,1.3-1.5,0.3-1.6-0.8c-0.2-1.7,0.3-3.5-0.6-5.5c-1.8,2.5,0,5.5-1.5,7.7c0-3-0.1-5.9-0.1-8.9
		c0-0.9-0.4-2.5,1.5-2c1.4,0.4,3.5,0.5,2.7,2.8C11.3,41.8,11.7,44,11.6,46.2z"/>
	<path fill="#BBBBBB" d="M30.7,47.8c-1.9,0.4-1.9-1-2.1-2.2c-0.5-0.2-0.5-0.5,0-0.7c0-1.4,0-2.9,0-4.3c-0.3-1.5-1.3-2-2.6-2.3
		c-0.4-0.4-0.6-0.8-0.4-1.3c1-1.1,2.7-0.3,3.7-1.3c1.6,0.6,1.5,2,1.5,3.3C30.8,41.9,30.7,44.9,30.7,47.8z"/>
	<path fill="#A0A0A0" d="M29.3,35.7c-0.8,1.3-2.2,1.3-3.5,1.4c-2.4,2-5.2,0.8-7.8,0.9c-0.6-0.2-1.1-0.5-1.5-0.9
		c-0.2-0.2-0.4-0.4-0.7-0.7C20.2,34.7,24.8,35.9,29.3,35.7z"/>
	<path fill="#A5A5A5" d="M16.5,37c0.5,0,0.9,0,1.4,0c2.8,0.7,5.8,0.1,8.6,0.7c1.8,0.1,2.1,1.3,2.1,2.8c-1.3-1.2-2.9-0.7-4.3-0.7
		c-2.7-0.1-5.4,0.2-7.8-1.4C16.5,38,16.5,37.5,16.5,37z"/>
	<path fill="#A5A5A5" d="M17.7,41.6c2.5-0.8,5.2-0.1,7.8,0.2c-2.6,0.3-5.2,0.5-7.7,0.8C17.7,42.3,17.7,41.9,17.7,41.6z"/>
	<path fill="#A1A1A1" d="M28.6,44.9c0,0.2,0,0.5,0,0.7c-3.2,0-6.4,0-9.6,0c0-0.2,0-0.5,0-0.7C22.2,44.9,25.4,44.9,28.6,44.9z"/>
	<path fill="#AEAEAE" d="M26.5,37.8c-2.9,0-5.8,0.7-8.6-0.7c2.6,0,5.3,0,7.9,0C26,37.3,26.2,37.5,26.5,37.8z"/>
</g>
</svg>
