<?xml version="1.0" encoding="utf-8"?>
<!-- Generator: Adobe Illustrator 18.1.1, SVG Export Plug-In . SVG Version: 6.00 Build 0)  -->
<svg version="1.1" id="Layer_1" xmlns="http://www.w3.org/2000/svg" xmlns:xlink="http://www.w3.org/1999/xlink" x="0px" y="0px"
	 viewBox="125.1 401.7 968.4 388.2" enable-background="new 125.1 401.7 968.4 388.2" xml:space="preserve">
<g>
	<path fill="#ADD8DC" d="M199.1,401.7c23.6,52.5,47.2,104.9,70.8,162.6c26.2-36.7,49.8-65.6,49.8-104.9c0-13.1,5.2-23.6,15.7-21
		c7.9,0,18.4,10.5,21,18.4c15.7,42,28.9,86.6,42,131.1c2.6,5.2,5.2,7.9,7.9,13.1c5.2,15.7-2.6,21-18.4,18.4
		c-7.9-2.6-13.1-2.6-18.4-2.6c-10.5-31.5-23.6-60.3-34.1-89.2c-15.7,23.6-34.1,47.2-49.8,70.8c-13.1,18.4-26.2,18.4-39.3-2.6
		c-13.1-23.6-26.2-49.8-39.3-73.4c-2.6-2.6-2.6-5.2-7.9-10.5c-10.5,31.5-21,60.3-31.5,89.2c-2.6,10.5-7.9,21-13.1,28.9
		c-2.6,5.2-13.1,7.9-21,10.5c-2.6-7.9-10.5-15.7-7.9-23.6c0-10.5,7.9-21,10.5-31.5c13.1-36.7,23.6-73.4,34.1-110.2
		c2.6-10.5-2.6-26.2-7.9-36.7c-7.9-23.6-5.2-31.5,21-31.5C193.9,401.7,196.5,401.7,199.1,401.7z"/>
	<path fill="#ADD8DC" d="M138.8,669.2c7.9,7.9,15.7,18.4,23.6,26.2c31.5,31.5,73.4,44.6,115.4,55.1c91.8,23.6,183.6,26.2,278,21
		c70.8-2.6,144.3-13.1,215.1-26.2c55.1-7.9,112.8-21,167.9-36.7c44.6-13.1,86.6-31.5,131.1-47.2c15.7-5.2,18.4,5.2,23.6,21
		c-49.8,15.7-97,36.7-146.9,49.8c-63,15.7-128.5,28.9-194.1,39.3c-44.6,7.9-91.8,10.5-136.4,13.1c-49.8,2.6-102.3,5.2-152.1,5.2
		c-39.3,0-78.7-10.5-118-10.5c-36.7-2.6-68.2-13.1-102.3-26.2c-36.7-13.1-65.6-34.1-91.8-63c-5.2-5.2-10.5-10.5-15.7-15.7
		C136.1,671.9,136.1,669.2,138.8,669.2z"/>
	<path fill="#ADD8DC" d="M755.2,446.3c-26.2,0-52.5-2.6-73.4,0c-18.4,2.6-23.6-7.9-26.2-18.4c-2.6-13.1,7.9-21,21-21
		c28.9,0,60.3,0,89.2,0c5.2,0,10.5,0,15.7,0c7.9,0,21-2.6,23.6,0c5.2,5.2,5.2,18.4,0,23.6c-10.5,21-23.6,39.3-39.3,57.7
		c-18.4,23.6-39.3,47.2-60.3,70.8c-7.9,10.5,0,13.1,7.9,15.7c28.9,5.2,57.7,7.9,86.6,13.1c7.9,2.6,15.7,7.9,23.6,13.1
		c-7.9,7.9-15.7,21-23.6,21c-31.5,0-60.3-5.2-91.8-10.5c-18.4-2.6-36.7-7.9-55.1-10.5c-5.2-2.6-15.7-5.2-15.7-10.5
		c0-7.9,2.6-18.4,7.9-26.2c7.9-10.5,21-15.7,28.9-26.2c21-23.6,42-44.6,63-68.2C744.7,462,749.9,456.8,755.2,446.3z"/>
	<path fill="#ADD8DC" d="M458.8,469.9c-5.2,31.5,13.1,60.3,31.5,89.2c7.9,13.1,52.5,21,65.6,13.1c7.9-7.9,13.1-18.4,13.1-28.9
		c2.6-34.1,2.6-65.6,5.2-99.7c0-7.9,0-18.4,5.2-21c7.9-5.2,18.4-7.9,28.9-10.5c2.6,7.9,7.9,15.7,7.9,23.6
		c-2.6,60.3-7.9,123.3-13.1,183.6c0,7.9-10.5,13.1-18.4,18.4c0,0-10.5-7.9-13.1-13.1c-5.2-5.2-10.5-10.5-15.7-13.1
		c-13.1-2.6-28.9,0-42-5.2c-57.7-13.1-83.9-44.6-83.9-102.3c0-15.7-2.6-31.5-5.2-47.2c-2.6-18.4,7.9-26.2,21-26.2
		c15.7,0,18.4,13.1,15.7,26.2C458.8,456.8,458.8,459.4,458.8,469.9z"/>
	<path fill="#ADD8DC" d="M991.2,629.9c-26.2,18.4-52.5,5.2-81.3,2.6c-21-2.6-42,0-63,0c-5.2,0-13.1-2.6-18.4-5.2
		c2.6-7.9,5.2-21,10.5-21c23.6-2.6,21-21,21-34.1c0-36.7-2.6-70.8-5.2-104.9c0-15.7,5.2-23.6,21-23.6c23.6,0,47.2-5.2,70.8-7.9
		c5.2,23.6-2.6,36.7-28.9,36.7c-13.1,0-26.2,7.9-23.6,18.4c2.6,10.5-5.2,31.5,21,31.5c10.5,0,23.6,2.6,34.1,5.2
		c2.6,21-5.2,28.9-23.6,26.2c-21-2.6-26.2,5.2-26.2,26.2s13.1,23.6,28.9,23.6c18.4,0,39.3,2.6,57.7,5.2
		C986,616.8,988.6,624.7,991.2,629.9L991.2,629.9z"/>
	<path fill="#ADD8DC" d="M991.2,629.9c13.1-5.2,31.5-7.9,42-15.7c21-13.1,21-39.3,5.2-57.7c-18.4-23.6-42-42-36.7-76.1
		c2.6-23.6,28.9-63,52.5-68.2c10.5-2.6,21,7.9,31.5,13.1c-5.2,5.2-10.5,13.1-18.4,15.7c-28.9,13.1-36.7,44.6-15.7,70.8
		c5.2,5.2,10.5,10.5,15.7,15.7c28.9,28.9,28.9,73.4,0,102.3c-10.5,10.5-21,18.4-34.1,23.6c-23.6,13.1-36.7,7.9-39.3-21
		C993.9,632.5,993.9,632.5,991.2,629.9L991.2,629.9z"/>
</g>
</svg>
