<?xml version="1.0" encoding="utf-8"?>
<!-- Generator: Adobe Illustrator 18.1.1, SVG Export Plug-In . SVG Version: 6.00 Build 0)  -->
<svg version="1.1" id="Laag_1" xmlns="http://www.w3.org/2000/svg" xmlns:xlink="http://www.w3.org/1999/xlink" x="0px" y="0px"
	 viewBox="0 0 960 560" enable-background="new 0 0 960 560" xml:space="preserve">
<path fill="#7D7E7E" d="M375.4,246.3c0-78.1,0-156.1,0-234.2c32.9,0,65.8,0,98.4,0c0.3,5.3,0.3,10.6,1,15.8
	c2.8,19,13.6,32.9,28.8,43.9c5.1,3.7,10.7,6.7,16,10c13.2,8.1,27.8,12.5,42.8,15.3c9.7,1.8,19.6,2.5,29.5,4
	c10.1,1.5,20.2,3,30.2,5.1c11.1,2.4,22.2,5,33.1,8.3c49,14.7,78.4,48,90.2,97.2c1.7,6.9,0.9,14.4,1.1,21.5c0.2,4.3,0,8.6,0,13.1
	C622.6,246.3,499,246.3,375.4,246.3z"/>
<path fill="#7D7E7E" d="M372.5,253.9c0,31.9,0,63,0,94.3c-55.6,0-111.2,0-166.8,0c0.6-13.3,3.4-25.5,16.3-32.4
	c4.5-2.4,9.6-3.8,14.4-5.7c7.2-2.8,14.6-5.3,21.8-8.4c7.1-3.1,10.1-15.2,5.9-21.8c-3.5-5.7-6.6-7.3-14.9-7.9c0-5.9,0-11.8,0-18.1
	c6,0,11.9,0,17.7,0c3.7,0,7.4,0.3,11-0.2c1.6-0.2,3-1.7,4.4-2.8c0.6-0.4,0.8-1.2,1.3-1.7c16.3-20.4,32.7-40.8,49-61.1
	c2.4-3.1,2.7-3.1,5.7-0.6c3.3,2.8,6.8,5.4,10.6,8.4c-15.2,19.1-30.3,38.1-46.1,57.8C326.3,253.9,349.2,253.9,372.5,253.9z"/>
<path fill="#7D7E7E" d="M426.8,318.6c2.8-8.4,5.2-16,7.6-23.5c3.9-12.2,7.8-24.4,11.8-36.5c0.3-0.9,1.3-2.2,1.9-2.2
	c7.8-0.2,15.6-0.1,24.4-0.1c-0.9,1.4-1.2,2.7-1.8,2.8c-5.3,1.3-6.4,5.3-7,9.9c-0.1,0.8-0.1,1.7-0.1,2.4c0,20.4,0,40.6,0,61
	c0,2.2,0.3,4.5,0.9,6.6c0.7,2.9,2.7,5,5.7,5.8c0.6,0.2,1.1,1,1.7,1.6c-0.6,0.5-1.3,1.3-1.8,1.3c-9.6,0.1-19.1,0.1-28.7,0
	c-0.6,0-1.6-0.6-1.7-1c-0.2-0.5,0.5-1.7,0.9-1.7c5.9-1.4,7.1-6,7.2-10.9c0.2-9,0.1-17.9,0.1-26.8c0-12.3,0-24.6-0.6-37.1
	c-0.4,0.9-0.8,1.8-1,2.8c-7.6,23.9-15.2,47.8-22.9,71.7c-0.2,0.7-0.3,1.4-0.7,2c-0.3,0.6-1,1.3-1.4,1.2c-0.6-0.1-1.5-0.6-1.7-1.3
	c-0.9-2.2-1.4-4.4-2.1-6.7c-6.9-22.6-13.8-45-20.7-67.6c-0.2-0.7-0.6-1.4-1.3-2.1c-0.1,0.6-0.2,1.1-0.2,1.6c0,20.7,0,41.3,0.1,61.9
	c0,2.2,0.2,4.6,1.3,6.4c1,1.9,3.1,3.1,4.9,4.6c0.7,0.7,1.5,1.3,2.2,2c-0.2,0.3-0.4,0.6-0.6,0.9c-6.4,0-12.9,0-20.3,0
	c0.9-1.2,1.3-2.4,2-2.7c4.2-1.2,5.7-4.2,6.4-8.1c0.2-1.6,0.3-3.2,0.3-4.9c0-20.1,0-40.2,0-60.4c0-1.7-0.1-3.5-0.2-5.2
	c-0.5-4.7-2.1-6.4-6.7-7.3c-0.9-0.2-1.7-1.2-2.4-1.8c0.2-0.4,0.3-0.8,0.5-1.1c3.9,0,7.9,0,11.8,0c3.5,0,6.9,0.2,10.4-0.1
	c2.4-0.2,3.3,0.6,4,2.9c5.6,18.7,11.3,37.3,17,56C425.9,316,426.2,316.8,426.8,318.6z"/>
<path fill="#7D7E7E" d="M675.7,388c11.2,0,22.1,0,33.2,0c-2.4,45.4-4.8,90.6-7.2,136c-5.9,0-11.7,0-18.2,0
	C680.9,478.8,678.3,433.6,675.7,388z"/>
<path fill="#7D7E7E" d="M304.7,388.3c-2.4,45.4-4.8,90.4-7.2,135.7c-5.8,0-11.6,0-18.2,0c-2.6-45-5.1-90.2-7.7-135.7
	C282.6,388.3,293.6,388.3,304.7,388.3z"/>
<path fill="#7D7E7E" d="M745.3,256.5c0,8.8,0,17.3,0,25.9c0,0.6-0.6,1.1-0.9,1.7c-0.5-0.6-1.2-0.9-1.3-1.6c-1-3.7-1.7-7.5-3-11.2
	c-2.6-6.8-7.7-10.3-14.9-10.5c-2.5-0.1-5.1,0-7.6-0.2c-3-0.2-4.4,1.2-4.5,4c-0.1,6.5-0.2,13-0.2,19.5c0,5,0,9.9,0,14.9
	c7.4,0.7,11.8-2,13.8-8.6c1-3.2,1.6-6.5,2.4-9.7c0.2-0.6,0.9-0.9,1.3-1.3c0.3,0.6,0.9,1,0.9,1.6c0.1,14.3,0.1,28.6,0.1,43
	c-0.3,0.2-0.6,0.3-0.9,0.5c-0.5-0.6-1.3-1.3-1.5-2c-0.7-2.7-1.2-5.3-1.9-8c-2.2-7.5-5.7-10.1-14.1-10c-0.1,0.9-0.2,1.7-0.2,2.6
	c0,9.7-0.1,19.3,0,29c0,6.6,1.3,7.7,7.8,8.3c9.3,0.7,16.3-2.9,20.9-10.8c2.1-3.5,3.6-7.5,5.6-11.2c0.5-0.9,1.7-1.5,3-2.7
	c0.2,1.4,0.2,1.7,0.2,2c-1.4,8.7-2.8,17.4-4.2,26.3c-19.1,0-38,0-57.8,0c0.7-1.2,1-2.5,1.7-2.7c5.3-1.4,6.7-5.5,6.9-10.2
	c0.2-3.9,0-7.9,0.1-11.9c0-17.4,0.1-35-0.1-52.4c0-2.9-1.3-5.9-2.4-8.6c-0.5-1.2-2.4-1.7-3.6-2.5c-0.9-0.6-1.6-1.4-2.3-2.1
	c0.2-0.2,0.4-0.6,0.6-0.8C707.5,256.5,726.2,256.5,745.3,256.5z"/>
<path fill="#7D7E7E" d="M605.8,256.5c0,9.2,0,18.3,0,27.4c-0.3,0.1-0.6,0.2-0.9,0.3c-0.4-0.8-1-1.5-1.3-2.4c-0.8-2.9-1.2-6-2.1-8.9
	c-2.7-8.2-8-12-16.6-12.3c-2.2-0.1-4.5,0-6.7-0.2c-2.8-0.2-4.3,0.8-4.5,3.7c-0.1,1.2-0.2,2.4-0.2,3.6c0,9.3,0,18.5,0,27.7
	c0,1.1,0,2.2,0,3.2c7,0.9,11.6-1.7,13.7-7.9c1.1-3.1,1.7-6.5,2.5-9.7c0.2-0.7,0.9-1.3,1.4-2c0.3,0.7,1,1.4,1,2.1
	c0.1,13.5,0.1,27,0,40.6c0,0.7-0.6,1.3-0.8,2c-0.6-0.6-1.3-1.1-1.5-1.8c-0.8-2.8-1.3-5.6-2-8.3c-2.2-7.3-5.9-9.9-14.1-9.7
	c-0.1,0.9-0.2,1.9-0.2,2.9c0,9.6,0,19.1,0,28.7c0,6.4,1.3,7.6,7.5,8.2c9.2,0.8,16.3-2.7,21-10.6c2.1-3.5,3.6-7.5,5.6-11.2
	c0.6-0.9,1.6-1.7,2.4-2.5c0.3,0.2,0.7,0.5,1,0.7c-1.4,9-2.9,18.1-4.3,27.3c-0.9,0.1-1.6,0.2-2.3,0.2c-17.4,0-34.7,0-52.2,0
	c-0.5,0-1.1,0.2-1.5-0.1c-0.6-0.2-1.2-0.8-1.3-1.3s0.5-1.4,0.9-1.5c5.5-1.3,7-5.5,7-10.1c0.2-21.8,0.2-43.7,0-65.5
	c0-4.6-1.4-8.6-6.7-10.1c-0.7-0.2-1.2-1.4-2.2-2.8C568.3,256.5,587,256.5,605.8,256.5z"/>
<path fill="#7D7E7E" d="M671.9,314c0.1-1.7,0.2-2.5,0.2-3.3c0-13.2,0.1-26.4-0.1-39.7c0-2.3-0.2-4.9-1.2-6.8s-3.3-3.2-5-4.9
	c-0.7-0.7-1.5-1.4-2.2-2.1c0.2-0.2,0.4-0.5,0.6-0.8c6.4,0,12.9,0,20.4,0c-0.9,1.3-1.4,2.5-2.1,2.8c-3.7,1-5.3,3.6-6,7
	c-0.4,1.8-0.6,3.6-0.6,5.4c0,24.5,0,49,0,73.5c0,1.2,0,2.4,0,3.6c-2.4,1.1-3.4-0.3-4.4-2c-13.4-22.2-27-44.5-40.5-66.7
	c-0.5-0.8-1.1-1.6-2-3c-0.1,1.7-0.2,2.4-0.2,3.3c0,17.5,0,35,0,52.5c0,2.1,0.2,4.2,0.8,6.3c0.7,2.8,2.5,4.8,5.4,5.7
	c0.9,0.3,1.4,1.3,2.1,2c-0.2,0.2-0.4,0.5-0.6,0.8c-6.4,0-12.9,0-20.5,0c1.1-1.3,1.6-2.5,2.3-2.8c3.5-0.9,5.3-3.4,6.1-6.6
	c0.4-1.7,0.5-3.5,0.5-5.1c0-20,0.1-40.1,0-60.1c0-5.7-3.9-9.5-7.2-13.6c-0.6-0.8-1.3-1.7-1.9-2.4c0.2-0.2,0.3-0.6,0.5-0.8
	c6.7,0,13.4-0.1,20,0.1c0.8,0,1.7,1.3,2.2,2.2c10.4,17.4,20.7,34.7,31.1,52.1C670.3,311.6,670.9,312.4,671.9,314z"/>
<path fill="#7D7E7E" d="M334,371.4c-9,0.5-18.2,0.4-22.4,11.2c-0.6,0-1.4,0.2-2.3,0.2c-14.1,0-28.2,0-42.4,0.1
	c-1.8,0-2.8-0.5-3.9-2.1c-3.1-5.3-7.5-8.6-14.1-8.6c-2,0-4-0.2-6.3-0.3c0-4.8,0-9.5,0-14.4c30.4,0,60.8,0,91.2,0
	C334,362.1,334,366.6,334,371.4z"/>
<path fill="#7D7E7E" d="M646.9,371.7c0-4.9,0-9.5,0-14.4c30.4,0,60.6,0,91.2,0c0,4.6,0,9.2,0,14.1c-8.8,0.5-18.2,0.3-22.2,11.2
	c-0.6,0-1.6,0.2-2.4,0.2c-14,0-28.1,0-42,0.1c-2,0-3-0.6-4-2.3c-3-5.1-7.2-8.4-13.5-8.5C651.6,372,649.4,371.8,646.9,371.7z"/>
<path fill="#7D7E7E" d="M684,536.4c0-5.1,3.9-9,9.1-9c5,0,9.1,4.2,9,9.2c-0.1,4.9-4.2,8.8-9,8.9C687.9,545.5,684,541.5,684,536.4z"
	/>
<path fill="#7D7E7E" d="M297.7,536.7c-0.1,5.2-3.9,8.9-9.2,8.8c-5-0.1-8.9-4-8.9-9c0-5,4.2-9.1,9.2-9
	C294,527.5,297.8,531.5,297.7,536.7z"/>
<path fill="#7D7E7E" d="M543.6,345c-4.1-0.7-5.2-3.9-6.2-7.1c-8.2-26.4-16.3-52.7-24.4-79.1c-0.3-1-1.5-1.7-2.3-2.6
	c-0.8,0.9-2,1.5-2.4,2.5c-6.1,19.4-11.9,38.8-17.9,58.2c-2.1,6.9-4.2,13.8-6.4,20.7c-1,3.1-2.2,6.2-6.1,7.2
	c-0.6,0.2-0.7,1.7-1.2,2.4c7.1,0,13.6,0,20.2,0c0.2,0,0.4-0.3,0.6-0.6c-0.6-0.6-1.2-1.7-2-1.8c-5.2-1.3-7.2-4.1-5.9-9.4
	c0.9-4.2,2.1-8.3,3.5-12.3c0.2-0.8,1.5-1.7,2.3-1.7c6.4-0.2,12.8-0.2,19.2,0c0.8,0,2.1,0.9,2.4,1.6c1.7,4.7,3.1,9.4,4.5,14.2
	c0.9,3.4-0.5,5.7-3.9,6.8c-1,0.3-2.3,0.3-3.2,0.7c-0.6,0.2-1,1.1-1.6,1.7c0.6,0.4,1.1,1.2,1.7,1.2c10,0.1,19.9,0.1,30.9,0.1
	C544.5,346.5,544.1,345.2,543.6,345z M495.1,315.9c3.1-10.2,6.2-21.2,9.3-31.8c0.2,0,0.5-0.1,0.7-0.1c3.2,10.5,6.4,20.9,9.8,31.9
	C508.1,315.9,501.8,315.9,495.1,315.9z"/>
</svg>
